<svg width="40" height="40" viewBox="0 0 40 40" fill="none" xmlns="http://www.w3.org/2000/svg">
<path d="M19.0416 34.0783C17.9663 34.0783 16.9881 33.776 16.107 33.1712C15.2259 32.5668 14.6299 31.7507 14.3191 30.7229C14.1627 30.3154 14.2313 29.9329 14.5249 29.5754C14.8188 29.2179 15.2067 29.0392 15.6886 29.0392C15.9906 29.0392 16.2585 29.14 16.4924 29.3417C16.7263 29.5433 16.916 29.7903 17.0616 30.0825C17.2349 30.4583 17.5089 30.7435 17.8836 30.9379C18.2586 31.1324 18.6446 31.2296 19.0416 31.2296C19.6593 31.2296 20.1788 31.0188 20.5999 30.5971C21.0213 30.1754 21.232 29.6557 21.232 29.0379C21.232 28.4132 21.0213 27.8922 20.5999 27.475C20.1788 27.0578 19.6593 26.8492 19.0416 26.8492H4.64573C4.24517 26.8492 3.90851 26.7119 3.63573 26.4375C3.36295 26.1633 3.22656 25.8217 3.22656 25.4125C3.22656 25.0097 3.36295 24.6736 3.63573 24.4042C3.90851 24.135 4.24517 24.0004 4.64573 24.0004H19.0416C20.4343 24.0004 21.6207 24.4904 22.6007 25.4704C23.5807 26.4504 24.0707 27.64 24.0707 29.0392C24.0707 30.4383 23.5807 31.6279 22.6007 32.6079C21.6207 33.5882 20.4343 34.0783 19.0416 34.0783ZM4.64573 16.1613C4.24517 16.1613 3.90851 16.0242 3.63573 15.75C3.36295 15.4758 3.22656 15.134 3.22656 14.7246C3.22656 14.3221 3.36295 13.9861 3.63573 13.7167C3.90851 13.4472 4.24517 13.3125 4.64573 13.3125H25.7916C26.6513 13.3125 27.3841 13.0104 27.9899 12.4062C28.5957 11.8018 28.8986 11.065 28.8986 10.1958C28.8986 9.33361 28.5957 8.60028 27.9899 7.99583C27.3841 7.39139 26.6513 7.08917 25.7916 7.08917C25.1793 7.08917 24.6177 7.24917 24.1066 7.56917C23.5955 7.88917 23.246 8.3275 23.0582 8.88417C22.9205 9.20306 22.7202 9.47528 22.4574 9.70083C22.1949 9.92639 21.8975 10.0392 21.5653 10.0392C21.1028 10.0392 20.7386 9.86736 20.4728 9.52375C20.2073 9.18014 20.1493 8.79458 20.2991 8.36708C20.651 7.12375 21.33 6.12681 22.3361 5.37625C23.3423 4.62542 24.4941 4.25 25.7916 4.25C27.4482 4.25 28.8534 4.82694 30.007 5.98083C31.1606 7.13444 31.7374 8.54278 31.7374 10.2058C31.7374 11.8689 31.1606 13.2772 30.007 14.4308C28.8534 15.5844 27.4482 16.1613 25.7916 16.1613H4.64573ZM32.6124 29.985C32.1982 30.1003 31.826 30.0265 31.4957 29.7638C31.1652 29.501 30.9999 29.1419 30.9999 28.6867C30.9999 28.3481 31.1143 28.0474 31.3432 27.7846C31.5721 27.5218 31.846 27.3183 32.1649 27.1742C32.743 26.9864 33.1834 26.6369 33.4861 26.1258C33.7889 25.6144 33.9403 25.0526 33.9403 24.4404C33.9403 23.6204 33.6553 22.9254 33.0853 22.3554C32.5153 21.7854 31.8202 21.5004 30.9999 21.5004H4.64573C4.24517 21.5004 3.90851 21.3632 3.63573 21.0888C3.36295 20.8146 3.22656 20.4761 3.22656 20.0733C3.22656 19.6708 3.36295 19.3349 3.63573 19.0654C3.90851 18.796 4.24517 18.6613 4.64573 18.6613H30.9999C32.5988 18.6613 33.9617 19.2247 35.0886 20.3517C36.2156 21.4789 36.7791 22.8418 36.7791 24.4404C36.7791 25.766 36.4005 26.9453 35.6432 27.9783C34.886 29.0117 33.8757 29.6806 32.6124 29.985Z" fill="currentColor"/>
</svg>
