<svg width="225" height="205" viewBox="0 0 225 205" fill="none" xmlns="http://www.w3.org/2000/svg">
<line x1="22.6682" y1="182.328" x2="55.9928" y2="152.583" stroke="#102838" stroke-width="4"/>
<path d="M170.556 47.6447L169.053 48.9635L171.69 51.9709L173.194 50.6521L171.875 49.1484L170.556 47.6447ZM215.068 13.1469C215.14 12.0447 214.305 11.0926 213.203 11.0204L195.242 9.84344C194.14 9.77122 193.188 10.6062 193.115 11.7085C193.043 12.8107 193.878 13.7628 194.98 13.835L210.946 14.8812L209.899 30.8474C209.827 31.9497 210.662 32.9018 211.764 32.974C212.866 33.0462 213.818 32.2112 213.891 31.109L215.068 13.1469ZM171.875 49.1484L173.194 50.6521L214.391 14.5199L213.072 13.0162L211.753 11.5125L170.556 47.6447L171.875 49.1484Z" fill="#102838"/>
<circle cx="10" cy="10" r="10" transform="matrix(0.746035 -0.665906 0.666301 0.745683 3.32812 186.189)" fill="#102838"/>
</svg>
