<svg width="24" height="24" viewBox="0 0 24 24" fill="none" xmlns="http://www.w3.org/2000/svg">
<path d="M11.7196 5.47961C11.8403 5.17787 12.274 5.17248 12.3983 5.47961L13.4354 8.03723L14.1952 7.78625C14.4451 7.70395 14.6964 7.904 14.6757 8.16516L14.3837 11.7228L15.7294 10.5236C15.9131 10.3596 16.202 10.421 16.3055 10.6407L16.5887 11.2443L18.6141 10.423C18.9271 10.2956 19.2313 10.6252 19.08 10.9269L17.9071 13.2667L18.6249 13.6573C18.8473 13.778 18.8879 14.0862 18.6835 14.2618L15.9579 16.5157L17.121 17.215C17.4121 17.3901 17.3269 17.8287 16.9989 17.8898C14.8125 18.2965 12.0994 18.7926 12.0594 18.7999C12.0594 18.7999 9.32406 18.2999 7.11999 17.8898C6.78363 17.8281 6.71241 17.3807 6.99792 17.215L8.16101 16.5157L5.43542 14.2618C5.23323 14.0948 5.26839 13.7767 5.49402 13.6573L6.21081 13.2667L5.03894 10.9279C4.89399 10.6379 5.177 10.2901 5.50378 10.423L7.52917 11.2452L7.81335 10.6417C7.91649 10.4224 8.20534 10.3592 8.38953 10.5236L9.73425 11.7237L9.44226 8.16516C9.42203 7.91176 9.66621 7.70201 9.92273 7.78625L10.6825 8.03723L11.7196 5.47961ZM11.1425 9.03137L10.2919 8.75109L10.6952 13.6534L8.28992 11.506L8.25281 11.5861L7.93054 12.2716L6.26843 11.5958L7.27234 13.5997L6.59363 13.9689L6.43835 14.0529L9.54187 16.6193L8.57312 17.2013L8.38953 17.3107C9.15486 17.4522 9.91902 17.5942 10.5604 17.712C11.0399 17.8001 11.4513 17.8756 11.7421 17.9288C11.8741 17.953 11.9817 17.9712 12.0594 17.9855C12.538 17.8979 14.1308 17.606 15.7274 17.3107L14.577 16.6193L17.6786 14.0538L16.8456 13.5997L17.8495 11.5958L16.1864 12.2706L15.828 11.507L13.4227 13.6505L13.8251 8.75109L13.6864 8.79699L12.9755 9.03137L12.0585 6.77062L11.1425 9.03137ZM7.26648 17.1036C7.26805 17.1039 7.26979 17.1033 7.27136 17.1036L7.26453 17.1027L7.26648 17.1036Z" fill="currentColor"/>
</svg>
