<svg width="86" height="86" viewBox="0 0 86 86" fill="none" xmlns="http://www.w3.org/2000/svg">
<path d="M21.2693 28.2459C20.8312 28.6839 20.8312 29.3942 21.2693 29.8323L28.408 36.971C28.8461 37.409 29.5563 37.409 29.9944 36.971C30.4325 36.5329 30.4325 35.8226 29.9944 35.3846L23.6489 29.0391L29.9944 22.6935C30.4325 22.2555 30.4325 21.5452 29.9944 21.1072C29.5563 20.6691 28.8461 20.6691 28.408 21.1072L21.2693 28.2459ZM63.9237 42.2941L62.8033 42.3482L62.8033 42.3484L63.9237 42.2941ZM49.8283 29.0391V27.9173H22.0625V29.0391V30.1608H49.8283V29.0391ZM35.5785 56.9579V58.0796H50.2264V56.9579V55.8362H35.5785V56.9579ZM50.2264 56.9579V58.0796C58.6766 58.0796 65.4627 50.8786 65.0441 42.2398L63.9237 42.2941L62.8033 42.3484C63.1615 49.7409 57.3613 55.8362 50.2264 55.8362V56.9579ZM63.9237 42.2941L65.0441 42.2401C64.6522 34.1178 57.7775 27.9173 49.8283 27.9173V29.0391V30.1608C56.6321 30.1608 62.4715 35.4723 62.8033 42.3482L63.9237 42.2941Z" fill="currentColor"/>
</svg>
