<svg width="43" height="37" viewBox="0 0 43 37" fill="none" xmlns="http://www.w3.org/2000/svg">
<mask id="path-1-inside-1_5293_2331" fill="white">
<path d="M36.8867 32.9346H39.5215V35.5693H42.1562V36.8867H0V35.5693H2.55176V32.9346H5.26953V30.2998H36.8867V32.9346ZM36.8867 14.4912V28.9824H31.6172V17.126C31.6172 15.6703 30.4381 14.4912 28.9824 14.4912C27.5268 14.4913 26.3477 15.6704 26.3477 17.126V28.9824H23.7129V17.126C23.7129 15.6703 22.5338 14.4912 21.0781 14.4912C19.6225 14.4913 18.4434 15.6703 18.4434 17.126V28.9824H15.8086V17.126C15.8086 15.6703 14.6295 14.4912 13.1738 14.4912C11.7181 14.4912 10.5391 15.6703 10.5391 17.126V28.9824H5.26953V14.4912L3.95215 11.8564H38.2041L36.8867 14.4912ZM39.5215 7.9043V10.5391H2.63477V7.9043L21.0781 0L39.5215 7.9043Z"/>
</mask>
<path d="M36.8867 32.9346H39.5215V35.5693H42.1562V36.8867H0V35.5693H2.55176V32.9346H5.26953V30.2998H36.8867V32.9346ZM36.8867 14.4912V28.9824H31.6172V17.126C31.6172 15.6703 30.4381 14.4912 28.9824 14.4912C27.5268 14.4913 26.3477 15.6704 26.3477 17.126V28.9824H23.7129V17.126C23.7129 15.6703 22.5338 14.4912 21.0781 14.4912C19.6225 14.4913 18.4434 15.6703 18.4434 17.126V28.9824H15.8086V17.126C15.8086 15.6703 14.6295 14.4912 13.1738 14.4912C11.7181 14.4912 10.5391 15.6703 10.5391 17.126V28.9824H5.26953V14.4912L3.95215 11.8564H38.2041L36.8867 14.4912ZM39.5215 7.9043V10.5391H2.63477V7.9043L21.0781 0L39.5215 7.9043Z" fill="#E7F6F5"/>
<path d="M36.8867 32.9346H36.0322V33.7891H36.8867V32.9346ZM39.5215 32.9346H40.376V32.08H39.5215V32.9346ZM39.5215 35.5693H38.6669V36.4239H39.5215V35.5693ZM42.1562 35.5693H43.0108V34.7148H42.1562V35.5693ZM42.1562 36.8867V37.7413H43.0108V36.8867H42.1562ZM0 36.8867H-0.854545V37.7413H0V36.8867ZM0 35.5693V34.7148H-0.854545V35.5693H0ZM2.55176 35.5693V36.4239H3.4063V35.5693H2.55176ZM2.55176 32.9346V32.08H1.69721V32.9346H2.55176ZM5.26953 32.9346V33.7891H6.12408V32.9346H5.26953ZM5.26953 30.2998V29.4453H4.41499V30.2998H5.26953ZM36.8867 30.2998H37.7413V29.4453H36.8867V30.2998ZM36.8867 14.4912L36.1224 14.109L36.0322 14.2895V14.4912H36.8867ZM36.8867 28.9824V29.837H37.7413V28.9824H36.8867ZM31.6172 28.9824H30.7626V29.837H31.6172V28.9824ZM28.9824 14.4912V13.6367H28.9823L28.9824 14.4912ZM26.3477 28.9824V29.837H27.2022V28.9824H26.3477ZM23.7129 28.9824H22.8583V29.837H23.7129V28.9824ZM21.0781 14.4912V13.6367H21.0781L21.0781 14.4912ZM18.4434 28.9824V29.837H19.2979V28.9824H18.4434ZM15.8086 28.9824H14.954V29.837H15.8086V28.9824ZM13.1738 14.4912V13.6367H13.1738L13.1738 14.4912ZM10.5391 28.9824V29.837H11.3936V28.9824H10.5391ZM5.26953 28.9824H4.41499V29.837H5.26953V28.9824ZM5.26953 14.4912H6.12408V14.2895L6.03386 14.109L5.26953 14.4912ZM3.95215 11.8564V11.0019H2.56946L3.18782 12.2386L3.95215 11.8564ZM38.2041 11.8564L38.9684 12.2386L39.5868 11.0019H38.2041V11.8564ZM39.5215 7.9043H40.376V7.34081L39.8581 7.11885L39.5215 7.9043ZM39.5215 10.5391V11.3936H40.376V10.5391H39.5215ZM2.63477 10.5391H1.78022V11.3936H2.63477V10.5391ZM2.63477 7.9043L2.29814 7.11885L1.78022 7.34081L1.78022 7.9043H2.63477ZM21.0781 0L21.4147 -0.785451L21.0781 -0.929718L20.7415 -0.785451L21.0781 0ZM36.8867 32.9346V33.7891H39.5215V32.9346V32.08H36.8867V32.9346ZM39.5215 32.9346H38.6669V35.5693H39.5215H40.376V32.9346H39.5215ZM39.5215 35.5693V36.4239H42.1562V35.5693V34.7148H39.5215V35.5693ZM42.1562 35.5693H41.3017V36.8867H42.1562H43.0108V35.5693H42.1562ZM42.1562 36.8867V36.0322H0V36.8867V37.7413H42.1562V36.8867ZM0 36.8867H0.854545V35.5693H0H-0.854545V36.8867H0ZM0 35.5693V36.4239H2.55176V35.5693V34.7148H0V35.5693ZM2.55176 35.5693H3.4063V32.9346H2.55176H1.69721V35.5693H2.55176ZM2.55176 32.9346V33.7891H5.26953V32.9346V32.08H2.55176V32.9346ZM5.26953 32.9346H6.12408V30.2998H5.26953H4.41499V32.9346H5.26953ZM5.26953 30.2998V31.1544H36.8867V30.2998V29.4453H5.26953V30.2998ZM36.8867 30.2998H36.0322V32.9346H36.8867H37.7413V30.2998H36.8867ZM36.8867 14.4912H36.0322V28.9824H36.8867H37.7413V14.4912H36.8867ZM36.8867 28.9824V28.1279H31.6172V28.9824V29.837H36.8867V28.9824ZM31.6172 28.9824H32.4717V17.126H31.6172H30.7626V28.9824H31.6172ZM31.6172 17.126H32.4717C32.4717 15.1983 30.9101 13.6367 28.9824 13.6367V14.4912V15.3458C29.9662 15.3458 30.7626 16.1422 30.7626 17.126H31.6172ZM28.9824 14.4912L28.9823 13.6367C27.0549 13.6368 25.4931 15.1983 25.4931 17.126H26.3477H27.2022C27.2022 16.1424 27.9987 15.3458 28.9825 15.3458L28.9824 14.4912ZM26.3477 17.126H25.4931V28.9824H26.3477H27.2022V17.126H26.3477ZM26.3477 28.9824V28.1279H23.7129V28.9824V29.837H26.3477V28.9824ZM23.7129 28.9824H24.5674V17.126H23.7129H22.8583V28.9824H23.7129ZM23.7129 17.126H24.5674C24.5674 15.1983 23.0058 13.6367 21.0781 13.6367V14.4912V15.3458C22.0619 15.3458 22.8583 16.1422 22.8583 17.126H23.7129ZM21.0781 14.4912L21.0781 13.6367C19.1505 13.6368 17.5888 15.1983 17.5888 17.126H18.4434H19.2979C19.2979 16.1423 20.0944 15.3458 21.0782 15.3458L21.0781 14.4912ZM18.4434 17.126H17.5888V28.9824H18.4434H19.2979V17.126H18.4434ZM18.4434 28.9824V28.1279H15.8086V28.9824V29.837H18.4434V28.9824ZM15.8086 28.9824H16.6631V17.126H15.8086H14.954V28.9824H15.8086ZM15.8086 17.126H16.6631C16.6631 15.1983 15.1015 13.6367 13.1738 13.6367V14.4912V15.3458C14.1576 15.3458 14.954 16.1422 14.954 17.126H15.8086ZM13.1738 14.4912L13.1738 13.6367C11.2462 13.6367 9.68452 15.1983 9.68452 17.126H10.5391H11.3936C11.3936 16.1422 12.1901 15.3458 13.1738 15.3458L13.1738 14.4912ZM10.5391 17.126H9.68452V28.9824H10.5391H11.3936V17.126H10.5391ZM10.5391 28.9824V28.1279H5.26953V28.9824V29.837H10.5391V28.9824ZM5.26953 28.9824H6.12408V14.4912H5.26953H4.41499V28.9824H5.26953ZM5.26953 14.4912L6.03386 14.109L4.71648 11.4743L3.95215 11.8564L3.18782 12.2386L4.5052 14.8734L5.26953 14.4912ZM3.95215 11.8564V12.711H38.2041V11.8564V11.0019H3.95215V11.8564ZM38.2041 11.8564L37.4398 11.4743L36.1224 14.109L36.8867 14.4912L37.651 14.8734L38.9684 12.2386L38.2041 11.8564ZM39.5215 7.9043H38.6669V10.5391H39.5215H40.376V7.9043H39.5215ZM39.5215 10.5391V9.68452H2.63477V10.5391V11.3936H39.5215V10.5391ZM2.63477 10.5391H3.48931V7.9043H2.63477H1.78022V10.5391H2.63477ZM2.63477 7.9043L2.97139 8.68975L21.4147 0.785451L21.0781 0L20.7415 -0.785451L2.29814 7.11885L2.63477 7.9043ZM21.0781 0L20.7415 0.785451L39.1849 8.68975L39.5215 7.9043L39.8581 7.11885L21.4147 -0.785451L21.0781 0Z" fill="currentColor" mask="url(#path-1-inside-1_5293_2331)"/>
</svg>
