<svg width="24" height="24" viewBox="0 0 24 24" fill="none" xmlns="http://www.w3.org/2000/svg">
<path d="M4.88575 20.0359C3.52225 20.0359 2.36708 19.5583 1.42025 18.6031C0.473417 17.6479 0 16.4886 0 15.1251C0 13.7711 0.479333 12.6183 1.438 11.6666C2.3965 10.7151 3.55408 10.2394 4.91075 10.2394C6.08225 10.2394 7.12 10.6185 8.024 11.3769C8.92817 12.1352 9.47542 13.0977 9.66575 14.2644H10.863L8.837 8.53586H7.78575C7.56325 8.53586 7.37667 8.46102 7.226 8.31136C7.07533 8.16152 7 7.97294 7 7.74561C7 7.51844 7.0745 7.33144 7.2235 7.18461C7.37233 7.03777 7.55975 6.96436 7.78575 6.96436H10.98C11.2027 6.96436 11.3892 7.04161 11.5398 7.19611C11.6904 7.35061 11.7657 7.54669 11.7657 7.78436C11.7657 8.00386 11.6939 8.18402 11.5503 8.32486C11.4064 8.46552 11.2283 8.53586 11.0157 8.53586H10.4838L11.1135 10.2394H16.5223L14.7653 5.53586H12.95C12.7273 5.53586 12.5407 5.46102 12.39 5.31136C12.2395 5.16152 12.1643 4.97294 12.1643 4.74561C12.1643 4.51844 12.2387 4.33144 12.3875 4.18461C12.5365 4.03777 12.7247 3.96436 12.952 3.96436H14.6363C15.0461 3.96436 15.3925 4.05794 15.6755 4.2451C15.9585 4.43244 16.167 4.71369 16.301 5.08886L18.1905 10.2394H19.1143C20.4686 10.2394 21.6215 10.7108 22.573 11.6536C23.5243 12.5964 24 13.739 24 15.0814C24 16.4392 23.5285 17.6024 22.5855 18.5711C21.6427 19.5398 20.4856 20.0241 19.1143 20.0241C17.9167 20.0241 16.8644 19.6261 15.9572 18.8301C15.0499 18.0339 14.4943 17.0359 14.2902 15.8359H9.66575C9.47542 17.0359 8.93317 18.0359 8.039 18.8359C7.14483 19.6359 6.09375 20.0359 4.88575 20.0359ZM4.88575 18.4644C5.66625 18.4644 6.34692 18.2127 6.92775 17.7094C7.50875 17.2062 7.89983 16.5817 8.101 15.8359H5.93575C5.71325 15.8359 5.52667 15.761 5.376 15.6114C5.22533 15.4615 5.15 15.2729 5.15 15.0456C5.15 14.8184 5.2245 14.6314 5.3735 14.4846C5.52233 14.3378 5.70975 14.2644 5.93575 14.2644H8.113C7.909 13.5382 7.51167 12.9478 6.921 12.4931C6.33017 12.0383 5.66008 11.8109 4.91075 11.8109C3.98942 11.8109 3.20158 12.133 2.54725 12.7774C1.89292 13.4217 1.56575 14.2034 1.56575 15.1224C1.56575 16.049 1.88875 16.8377 2.53475 17.4884C3.18075 18.139 3.96442 18.4644 4.88575 18.4644ZM12.4978 14.2644H14.3152C14.3779 13.8929 14.5031 13.4808 14.6908 13.0281C14.8784 12.5754 15.1309 12.1697 15.4482 11.8109H11.6588L12.4978 14.2644ZM19.1143 18.4644C20.0356 18.4644 20.8193 18.139 21.4653 17.4884C22.1112 16.8377 22.4342 16.0499 22.4342 15.1251C22.4342 14.2038 22.1132 13.4231 21.4713 12.7831C20.8293 12.1429 20.0595 11.8209 19.162 11.8169H18.774L19.475 13.8881C19.5417 14.0794 19.5315 14.271 19.4445 14.4629C19.3575 14.6545 19.2015 14.7938 18.9765 14.8806C18.785 14.9508 18.5978 14.9388 18.4148 14.8446C18.2318 14.7503 18.0986 14.6061 18.0152 14.4121L17.2023 12.3349C16.7318 12.6165 16.3804 13.0103 16.1483 13.5161C15.9161 14.0218 15.8 14.5577 15.8 15.1239C15.8 16.0502 16.1224 16.8385 16.7673 17.4889C17.4121 18.1392 18.1944 18.4644 19.1143 18.4644Z" fill="currentColor"/>
</svg>
