<svg width="52" height="49" viewBox="0 0 52 49" fill="none" xmlns="http://www.w3.org/2000/svg">
<path d="M1.64109 28.98C6.90872 32.0274 12.6139 34.1383 18.5851 35.2209C22.072 35.8613 25.3995 36.8014 28.4629 38.0132L37.3801 41.5482C41.047 43.0034 44.9296 44.053 48.832 44.6528L48.8 44.644L50.1524 44.8527L50.0011 45.2152C48.8865 47.8926 45.9362 49.3349 43.138 48.5657L42.1955 48.3066C41.6118 48.1462 41.2696 47.5445 41.4301 46.9608C41.5004 46.705 41.349 46.4403 41.0932 46.3699L40.0706 46.0888C39.8148 46.0185 39.5493 46.1687 39.479 46.4245C39.3186 47.0081 38.7169 47.3503 38.1333 47.1899L37.5739 47.0361C36.9903 46.8757 36.6481 46.274 36.8085 45.6904C36.8788 45.4346 36.7284 45.1701 36.4726 45.0998L35.4491 44.8184C35.1933 44.7481 34.9288 44.8985 34.8584 45.1543C34.698 45.7379 34.0963 46.0801 33.5127 45.9197L32.9533 45.7659C32.3697 45.6055 32.0275 45.0038 32.1879 44.4202C32.2582 44.1644 32.1069 43.8996 31.8511 43.8293L30.8285 43.5482C30.5727 43.4779 30.3072 43.6281 30.2369 43.8839C30.0765 44.4675 29.4748 44.8097 28.8911 44.6493L18.0426 41.667C17.459 41.5066 17.1168 40.9049 17.2772 40.3213C17.3475 40.0655 17.197 39.801 16.9413 39.7306L15.9177 39.4493C15.6619 39.379 15.3974 39.5294 15.3271 39.7852C15.1667 40.3688 14.5649 40.711 13.9814 40.5506L13.422 40.3968C12.8384 40.2364 12.4962 39.6347 12.6566 39.0511C12.7269 38.7953 12.5756 38.5305 12.3198 38.4602L11.2972 38.1791C11.0413 38.1087 10.7759 38.2589 10.7056 38.5147C10.5451 39.0984 9.94344 39.4406 9.35983 39.2801L8.8005 39.1264C8.21692 38.9659 7.87468 38.3642 8.03511 37.7806C8.10539 37.5248 7.95494 37.2604 7.69918 37.19L6.67562 36.9086C6.41984 36.8384 6.15533 36.9888 6.08499 37.2445C5.92456 37.8281 5.32284 38.1703 4.73924 38.0099L2.62811 37.4296C0.725603 36.9063 -0.398375 34.9291 0.124617 33.0265L1.29153 28.7816L1.64109 28.98ZM29.5541 1.29472C30.1353 1.21371 30.6061 1.75626 30.4501 2.3239L28.6611 8.83152C28.3864 9.83083 28.2622 10.8458 28.2711 11.8457L24.9787 12.3423C24.6493 11.9766 24.1678 11.7236 23.5889 11.702C22.9317 11.6848 22.2941 12.0346 21.9672 12.5982C21.2933 13.7369 21.8954 15.0798 23.0624 15.4008C23.9736 15.6513 24.8974 15.2007 25.2729 14.3668L28.4744 13.8877C28.7033 15.0254 29.1104 16.1094 29.6741 17.1242L26.8498 18.5486C26.3617 18.2596 25.8361 18.0728 24.6286 18.9619C24.371 19.1489 24.1596 19.4175 24.0818 19.7312C23.8457 20.7154 24.4304 21.7189 25.4138 21.9893C26.3971 22.2594 27.4525 21.6723 27.7294 20.6651C27.7557 20.5693 27.7639 20.4768 27.7743 20.3766L30.868 18.8196C31.5848 19.653 32.4342 20.4107 33.4082 20.9966C33.4118 21.0148 33.4094 21.0233 33.413 21.0415L31.0984 23.2684C30.12 23.0424 29.1268 23.6209 28.8587 24.5962C28.5467 25.7315 29.348 26.915 30.5855 26.98C31.2041 27.0125 31.8204 26.7088 32.19 26.2088C32.5349 25.7362 32.6077 25.2226 32.5163 24.7418L35.0982 22.2613C36.0326 22.9911 37.1511 23.9602 38.2646 24.9456L36.4622 27.0297C35.4094 26.8865 34.3916 27.6478 34.3281 28.8171C34.2904 29.486 34.6473 30.1603 35.2247 30.4997C36.3577 31.1634 37.7112 30.5548 38.032 29.3876C38.1264 29.0439 38.1127 28.6878 38.0138 28.3597L39.787 26.3192C41.405 27.7529 43.119 29.0577 45.0224 30.0797C49.004 32.2061 52.0622 36.848 50.9062 41.0533L50.9215 41.0565L50.6181 42.1601L49.2464 41.9552C45.5266 41.3797 41.8765 40.3936 38.3731 39.0006L29.394 35.4405C26.0058 34.0963 22.4773 33.1687 18.8887 32.4918C17.2444 32.186 15.6219 31.7998 14.0215 31.3341C14.2676 30.7827 14.4703 30.2023 14.6351 29.6028C16.5032 22.8073 12.4951 15.7723 5.70781 13.9065L9.36488 0.603088C9.49018 0.147418 9.96319 -0.101365 10.4065 0.0376718L16.9886 2.14889C18.2337 2.40519 19.4971 2.50278 20.7618 2.4377L29.5541 1.29472ZM4.93782 16.7038C10.1824 18.1455 13.2806 23.5807 11.8366 28.8335C11.6828 29.3931 11.4851 29.924 11.2419 30.4333C8.28937 29.3808 5.43981 28.0468 2.7153 26.4466L2.32237 26.218L4.93782 16.7038Z" fill="#E7F6F5"/>
</svg>
