<svg width="32" height="32" viewBox="0 0 32 32" fill="none" xmlns="http://www.w3.org/2000/svg">
<path d="M30.546 9.93546H28.3106C27.7785 9.93546 27.317 10.2542 27.105 10.681L25.0124 5.85547C24.6937 5.10989 23.9842 4.64982 23.1679 4.64982L8.76249 4.64844C7.94623 4.64844 7.23669 5.10992 6.91797 5.85409L4.8254 10.6797C4.61198 10.2542 4.1519 9.93408 3.61975 9.93408L1.38303 9.93546C0.63745 9.93546 0 10.5383 0 11.3185V11.7439C0 12.4535 0.602824 13.0923 1.38303 13.0923H3.61837H3.79575L3.15688 14.5821C2.4113 14.6888 1.84452 15.3277 1.84452 16.0718V22.4939C1.84452 22.6006 1.84452 22.7073 1.88055 22.8126C1.84452 22.8833 1.84452 22.9193 1.84452 22.99V26.3243C1.84452 27.2472 2.5901 27.9914 3.51165 27.9914L5.67631 27.9928C6.59928 27.9928 7.34345 27.2472 7.34345 26.3257V24.0197H24.6566V26.3257C24.6566 27.2486 25.4021 27.9928 26.3237 27.9928H28.4883C29.4113 27.9928 30.1555 27.2472 30.1555 26.3257V22.9914C30.1555 22.9207 30.1555 22.85 30.1195 22.814C30.1555 22.7073 30.1555 22.6006 30.1555 22.4953V16.0374C30.1555 15.2572 29.5873 14.6183 28.8431 14.5476L28.2042 13.0579H28.3816H30.617C31.3625 13.0579 32 12.4551 32 11.6749V11.2494C31.9293 10.5385 31.3265 9.93568 30.5463 9.93568L30.546 9.93546ZM9.29457 7.13197H22.669L25.6485 14.05H6.315L9.29457 7.13197ZM6.81118 20.7558C5.85359 20.7558 5.07338 19.9756 5.07338 19.018C5.07338 18.0604 5.85359 17.2802 6.81118 17.2802C7.76878 17.2802 8.54899 18.0604 8.54899 19.018C8.55037 19.9742 7.76878 20.7558 6.81118 20.7558ZM21.1793 21.0039H10.7498V20.4011C10.7498 19.6555 11.3527 19.018 12.1329 19.018H19.7966C20.5422 19.018 21.1796 19.6209 21.1796 20.4011L21.1793 21.0039ZM25.118 20.7558C24.1604 20.7558 23.3802 19.9756 23.3802 19.018C23.3802 18.0604 24.1604 17.2802 25.118 17.2802C26.0756 17.2802 26.8558 18.0604 26.8558 19.018C26.8558 19.9742 26.0756 20.7558 25.118 20.7558Z" fill="#F6F2F0"/>
</svg>
