<svg width="100%" height="100%" viewBox="0 0 24 24" fill="none" xmlns="http://www.w3.org/2000/svg">
<path d="M4.55384 21.1497C4.09384 21.1497 3.695 20.9808 3.35734 20.643C3.0195 20.3053 2.85059 19.9065 2.85059 19.4465V16.052C2.85059 15.8115 2.93284 15.6094 3.09734 15.4457C3.26184 15.2821 3.46492 15.2002 3.70659 15.2002C3.94825 15.2002 4.14992 15.2821 4.31159 15.4457C4.47309 15.6094 4.55384 15.8115 4.55384 16.052V19.4465H7.94834C8.18884 19.4465 8.39092 19.5287 8.55459 19.6932C8.71825 19.8577 8.80009 20.0608 8.80009 20.3025C8.80009 20.5441 8.71825 20.7457 8.55459 20.9072C8.39092 21.0689 8.18884 21.1497 7.94834 21.1497H4.55384ZM19.4463 21.1497H16.0518C15.8113 21.1497 15.6093 21.0675 15.4456 20.903C15.2819 20.7385 15.2001 20.5354 15.2001 20.2937C15.2001 20.0521 15.2819 19.8504 15.4456 19.6887C15.6093 19.5272 15.8113 19.4465 16.0518 19.4465H19.4463V16.052C19.4463 15.8115 19.5286 15.6094 19.6931 15.4457C19.8576 15.2821 20.0605 15.2002 20.3018 15.2002C20.5432 15.2002 20.7458 15.2821 20.9096 15.4457C21.0736 15.6094 21.1556 15.8115 21.1556 16.052V19.4465C21.1556 19.9065 20.9861 20.3053 20.6471 20.643C20.3083 20.9808 19.908 21.1497 19.4463 21.1497ZM2.85059 7.94848V4.55398C2.85059 4.09231 3.0195 3.69206 3.35734 3.35323C3.695 3.01423 4.09384 2.84473 4.55384 2.84473H7.94834C8.18884 2.84473 8.39092 2.92814 8.55459 3.09498C8.71825 3.26198 8.80009 3.46606 8.80009 3.70723C8.80009 3.94856 8.71825 4.15006 8.55459 4.31173C8.39092 4.47323 8.18884 4.55398 7.94834 4.55398H4.55384V7.94848C4.55384 8.18898 4.47159 8.39106 4.30709 8.55473C4.14259 8.71839 3.9395 8.80023 3.69784 8.80023C3.45617 8.80023 3.25459 8.71839 3.09309 8.55473C2.93142 8.39106 2.85059 8.18898 2.85059 7.94848ZM19.4463 7.94848V4.55398H16.0518C15.8113 4.55398 15.6093 4.47173 15.4456 4.30723C15.2819 4.14273 15.2001 3.93981 15.2001 3.69848C15.2001 3.45714 15.2819 3.25456 15.4456 3.09073C15.6093 2.92673 15.8113 2.84473 16.0518 2.84473H19.4463C19.908 2.84473 20.3083 3.01423 20.6471 3.35323C20.9861 3.69206 21.1556 4.09231 21.1556 4.55398V7.94848C21.1556 8.18898 21.0722 8.39106 20.9053 8.55473C20.7383 8.71839 20.5343 8.80023 20.2931 8.80023C20.0518 8.80023 19.8503 8.71839 19.6886 8.55473C19.5271 8.39106 19.4463 8.18898 19.4463 7.94848ZM11.9983 15.6887C10.917 15.6887 10.0322 15.3442 9.34384 14.6552C8.65567 13.9662 8.31159 13.081 8.31159 11.9995C8.31159 10.9181 8.65609 10.0321 9.34509 9.34148C10.0341 8.65098 10.9193 8.30573 12.0008 8.30573C13.0822 8.30573 13.9682 8.65139 14.6588 9.34273C15.3493 10.0341 15.6946 10.9205 15.6946 12.002C15.6946 13.0833 15.3489 13.9681 14.6576 14.6565C13.9663 15.3446 13.0798 15.6887 11.9983 15.6887ZM12.0011 13.9855C12.5559 13.9855 13.0253 13.7931 13.4093 13.4085C13.7933 13.0236 13.9853 12.5539 13.9853 11.9992C13.9853 11.4444 13.793 10.975 13.4083 10.591C13.0235 10.207 12.5538 10.015 11.9991 10.015C11.4443 10.015 10.9748 10.2073 10.5908 10.592C10.2068 10.9768 10.0148 11.4466 10.0148 12.0012C10.0148 12.5561 10.2072 13.0255 10.5918 13.4095C10.9767 13.7935 11.4464 13.9855 12.0011 13.9855Z" fill="currentColor"/>
</svg>
