<svg width="100%" height="100%" viewBox="0 0 40 40" fill="none" xmlns="http://www.w3.org/2000/svg">
<path d="M19.9954 8.02625C19.5929 8.02625 19.2569 7.88986 18.9875 7.61708C18.7181 7.34431 18.5833 7.00764 18.5833 6.60708V2.85708C18.5833 2.45625 18.7206 2.11944 18.995 1.84667C19.2692 1.57389 19.6076 1.4375 20.0104 1.4375C20.4129 1.4375 20.7489 1.57389 21.0183 1.84667C21.2878 2.11944 21.4225 2.45625 21.4225 2.85708V6.60708C21.4225 7.00764 21.2853 7.34431 21.0108 7.61708C20.7367 7.88986 20.3982 8.02625 19.9954 8.02625ZM28.465 11.5379C28.1817 11.2549 28.04 10.9164 28.04 10.5225C28.04 10.1289 28.1817 9.79042 28.465 9.50708L31.09 6.88208C31.375 6.59903 31.7139 6.4575 32.1067 6.4575C32.4994 6.4575 32.8375 6.59903 33.1208 6.88208C33.4039 7.16542 33.5454 7.49694 33.5454 7.87667C33.5454 8.25667 33.4039 8.58819 33.1208 8.87125L30.4542 11.5379C30.1708 11.8212 29.8393 11.9629 29.4596 11.9629C29.0796 11.9629 28.7481 11.8212 28.465 11.5379ZM33.3958 21.4196C32.9953 21.4196 32.6586 21.2824 32.3858 21.0079C32.1131 20.7337 31.9767 20.3953 31.9767 19.9925C31.9767 19.59 32.1131 19.254 32.3858 18.9846C32.6586 18.7151 32.9953 18.5804 33.3958 18.5804H37.1458C37.5467 18.5804 37.8835 18.7176 38.1562 18.9921C38.429 19.2662 38.5654 19.6047 38.5654 20.0075C38.5654 20.41 38.429 20.746 38.1562 21.0154C37.8835 21.2849 37.5467 21.4196 37.1458 21.4196H33.3958ZM31.1317 33.1179L28.5067 30.4929C28.2167 30.2029 28.0717 29.8628 28.0717 29.4725C28.0717 29.0819 28.2167 28.7418 28.5067 28.4521C28.7897 28.1687 29.1282 28.0271 29.5221 28.0271C29.9157 28.0271 30.2542 28.1687 30.5375 28.4521L33.1625 31.0771C33.4456 31.3621 33.5871 31.7026 33.5871 32.0987C33.5871 32.4949 33.4447 32.8346 33.16 33.1179C32.8756 33.401 32.5371 33.5425 32.1446 33.5425C31.7524 33.5425 31.4147 33.401 31.1317 33.1179ZM9.55167 11.5379L6.885 8.87125C6.60194 8.58819 6.46042 8.25667 6.46042 7.87667C6.46042 7.49694 6.60194 7.16542 6.885 6.88208C7.16278 6.59903 7.49292 6.4575 7.87542 6.4575C8.25819 6.4575 8.59111 6.59903 8.87417 6.88208L11.5408 9.54875C11.8242 9.83208 11.9658 10.1636 11.9658 10.5433C11.9658 10.9233 11.8242 11.2549 11.5408 11.5379C11.2578 11.8212 10.9262 11.9629 10.5462 11.9629C10.1665 11.9629 9.835 11.8212 9.55167 11.5379ZM10.0029 32.3304H17.4929C18.3657 32.3304 19.1096 32.024 19.7246 31.4112C20.3396 30.7982 20.6471 30.0533 20.6471 29.1767C20.6471 28.2997 20.3475 27.5429 19.7483 26.9062C19.1492 26.2696 18.4079 25.9512 17.5246 25.9512H15.6017L14.8017 24.1529C14.3944 23.1932 13.755 22.4315 12.8833 21.8679C12.0117 21.3043 11.0515 21.0225 10.0029 21.0225C8.42903 21.0225 7.09153 21.5687 5.99042 22.6612C4.88958 23.7537 4.33917 25.0856 4.33917 26.6567C4.33917 28.2281 4.88958 29.5665 5.99042 30.6721C7.09153 31.7776 8.42903 32.3304 10.0029 32.3304ZM10.0029 35.1696C7.65097 35.1696 5.64583 34.3404 3.9875 32.6821C2.32917 31.0237 1.5 29.0186 1.5 26.6667C1.5 24.3014 2.34083 22.2929 4.0225 20.6412C5.70389 18.9896 7.73389 18.1671 10.1125 18.1737C11.7164 18.1737 13.1765 18.6285 14.4929 19.5379C15.8093 20.4474 16.7936 21.6421 17.4458 23.1221C19.1292 23.1221 20.5444 23.7308 21.6917 24.9483C22.8389 26.1658 23.4125 27.6226 23.4125 29.3187C23.3 30.9474 22.685 32.3296 21.5675 33.4654C20.4503 34.6015 19.0954 35.1696 17.5029 35.1696H10.0029ZM23.4125 29.3187C23.2958 28.8515 23.176 28.3917 23.0529 27.9392C22.9296 27.4867 22.8064 27.0236 22.6833 26.55C24.0347 26.0208 25.1094 25.1603 25.9075 23.9683C26.7053 22.7767 27.1042 21.4558 27.1042 20.0058C27.1042 18.0317 26.4132 16.3536 25.0312 14.9717C23.6493 13.5897 21.9732 12.8987 20.0029 12.8987C18.2421 12.8987 16.6981 13.4549 15.3708 14.5671C14.0436 15.6793 13.2622 17.0975 13.0267 18.8217C12.5356 18.705 12.0499 18.5971 11.5696 18.4979C11.089 18.3985 10.6033 18.2904 10.1125 18.1737C10.5214 15.7893 11.6656 13.8408 13.545 12.3283C15.4244 10.8158 17.5771 10.0596 20.0029 10.0596C22.7674 10.0596 25.1151 11.0253 27.0462 12.9567C28.9776 14.8878 29.9433 17.2403 29.9433 20.0142C29.9433 22.1183 29.3468 24.0182 28.1538 25.7137C26.9607 27.4093 25.3803 28.611 23.4125 29.3187Z" fill="#102838"/>
</svg>
