<svg width="297" height="300" viewBox="0 0 297 300" fill="none" xmlns="http://www.w3.org/2000/svg">
<circle cx="147.938" cy="149.945" r="128.141" stroke="#102838" stroke-opacity="0.3" stroke-width="16.7188" stroke-dasharray="1.19 4.78"/>
<circle cx="147.938" cy="149.945" r="128.141" stroke="#102838" stroke-width="16.7188" stroke-dasharray="3 71.65"/>
<rect width="38" height="45" transform="translate(129.195)" fill="white"/>
<path d="M154.389 14.0165C154.556 14.0165 154.64 14.1081 154.64 14.2912V30.7253C154.64 30.8169 154.61 30.8856 154.549 30.9313C154.503 30.9771 154.434 31 154.343 31H153.221C153.13 31 153.046 30.9924 152.97 30.9771C152.893 30.9619 152.817 30.9084 152.741 30.8169L143.906 17.9763C143.829 17.8695 143.768 17.8237 143.722 17.839C143.677 17.8542 143.654 17.9076 143.654 17.9992V30.7024C143.654 30.9008 143.547 31 143.333 31H142.052C141.853 31 141.754 30.9008 141.754 30.7024V14.337C141.754 14.1233 141.853 14.0165 142.052 14.0165H143.356C143.478 14.0165 143.57 14.0318 143.631 14.0623C143.692 14.0776 143.761 14.1386 143.837 14.2454L152.42 26.8114C152.512 26.9182 152.588 26.9563 152.649 26.9258C152.725 26.8953 152.764 26.8342 152.764 26.7427V14.2912C152.764 14.1081 152.855 14.0165 153.038 14.0165H154.389Z" fill="#102838"/>
<rect width="38" height="45" transform="translate(129.195 254.945)" fill="white"/>
<path d="M152.262 272.12C151.866 271.647 151.354 271.243 150.729 270.907C150.103 270.572 149.317 270.404 148.371 270.404C147.227 270.404 146.327 270.656 145.67 271.159C145.014 271.663 144.686 272.365 144.686 273.265C144.686 273.509 144.74 273.791 144.846 274.112C144.968 274.432 145.205 274.745 145.556 275.05C145.907 275.355 146.433 275.63 147.135 275.874L150.454 276.973C151.843 277.431 152.827 278.041 153.407 278.804C153.987 279.552 154.277 280.437 154.277 281.459C154.277 282.436 154.032 283.283 153.544 284C153.056 284.702 152.362 285.243 151.461 285.625C150.561 285.991 149.478 286.174 148.211 286.174C147.295 286.174 146.449 286.067 145.67 285.854C144.892 285.625 144.198 285.304 143.588 284.892C142.992 284.465 142.481 283.939 142.054 283.313C141.978 283.206 141.947 283.115 141.962 283.038C141.993 282.947 142.069 282.855 142.191 282.764L143.015 282.192C143.168 282.1 143.282 282.054 143.359 282.054C143.45 282.054 143.526 282.1 143.588 282.192C144 282.71 144.404 283.145 144.801 283.496C145.197 283.832 145.655 284.084 146.174 284.252C146.708 284.419 147.357 284.503 148.119 284.503C149.325 284.503 150.302 284.29 151.049 283.862C151.797 283.42 152.171 282.695 152.171 281.688C152.171 281.307 152.095 280.963 151.942 280.658C151.789 280.338 151.53 280.048 151.164 279.788C150.797 279.514 150.271 279.247 149.584 278.987L146.105 277.797C145.266 277.507 144.587 277.133 144.068 276.675C143.549 276.218 143.168 275.714 142.924 275.165C142.695 274.615 142.58 274.051 142.58 273.471C142.58 272.51 142.825 271.678 143.313 270.976C143.801 270.259 144.473 269.71 145.327 269.328C146.197 268.931 147.212 268.733 148.371 268.733C149.149 268.733 149.859 268.825 150.5 269.008C151.156 269.191 151.751 269.45 152.285 269.786C152.835 270.122 153.315 270.526 153.727 270.999C153.788 271.06 153.826 271.129 153.842 271.205C153.857 271.281 153.819 271.358 153.727 271.434L152.674 272.258C152.598 272.304 152.537 272.319 152.491 272.304C152.445 272.273 152.369 272.212 152.262 272.12Z" fill="#102838"/>
<rect width="41.776" height="45" transform="translate(254.609 122.914)" fill="white"/>
<path d="M270.531 137.251C270.531 137.037 270.623 136.931 270.806 136.931H281.083C281.236 136.931 281.312 137.015 281.312 137.182V138.35C281.312 138.533 281.213 138.624 281.014 138.624H273.026C272.828 138.624 272.729 138.716 272.729 138.899V144.255C272.729 144.423 272.813 144.507 272.98 144.507H278.909C279.076 144.507 279.16 144.591 279.16 144.759V145.972C279.16 146.033 279.145 146.086 279.115 146.132C279.084 146.162 279.015 146.178 278.909 146.178H272.98C272.813 146.178 272.729 146.262 272.729 146.429V151.991C272.729 152.144 272.805 152.22 272.958 152.22H281.358C281.526 152.22 281.609 152.297 281.609 152.449V153.662C281.609 153.739 281.587 153.8 281.541 153.845C281.51 153.891 281.449 153.914 281.358 153.914H270.852C270.638 153.914 270.531 153.807 270.531 153.594V137.251Z" fill="#102838"/>
<rect width="41.776" height="45" transform="translate(0 123.234)" fill="white"/>
<path d="M31.4749 137.251C31.6123 137.251 31.7038 137.289 31.7496 137.365C31.8106 137.442 31.8259 137.541 31.7954 137.663L27.0803 153.891C27.004 154.12 26.8361 154.234 26.5767 154.234H25.1805C24.8906 154.234 24.7151 154.128 24.6541 153.914L20.9919 140.936C20.9766 140.86 20.9537 140.822 20.9232 140.822C20.8927 140.822 20.8622 140.867 20.8317 140.959L17.1237 153.891C17.0474 154.12 16.8795 154.234 16.6201 154.234H15.201C14.9111 154.234 14.7356 154.128 14.6746 153.914L10.0281 137.663C9.99763 137.541 10.0053 137.442 10.051 137.365C10.1121 137.289 10.2113 137.251 10.3486 137.251H11.8135C11.9355 137.251 12.0271 137.274 12.0881 137.32C12.1492 137.35 12.1873 137.419 12.2026 137.526L15.9335 150.847C15.9792 151.015 16.025 151.099 16.0708 151.099C16.1318 151.083 16.1776 151.007 16.2081 150.87L20.0077 137.503C20.0382 137.442 20.0763 137.388 20.1221 137.342C20.1831 137.281 20.2823 137.251 20.4197 137.251H21.7243C21.8616 137.251 21.9532 137.274 21.999 137.32C22.06 137.35 22.1058 137.419 22.1363 137.526L25.8901 150.916C25.9359 151.053 25.9816 151.122 26.0274 151.122C26.0732 151.106 26.119 151.038 26.1647 150.916L29.9414 137.503C29.9566 137.411 29.9948 137.35 30.0558 137.32C30.1321 137.274 30.2237 137.251 30.3305 137.251H31.4749Z" fill="#102838"/>
</svg>
