<svg width="11" height="10" viewBox="0 0 11 10" fill="none" xmlns="http://www.w3.org/2000/svg">
<mask id="path-1-inside-1_5181_64745" fill="white">
<path d="M9.41797 8.40918H10.0908V9.08105H10.7627V9.41797H0V9.08105H0.651367V8.40918H1.34473V7.73633H9.41797V8.40918ZM9.41797 3.7002V7.39941H8.07227V4.37207C8.07205 4.00059 7.77095 3.7002 7.39941 3.7002C7.02795 3.70028 6.72678 4.00064 6.72656 4.37207V7.39941H6.05371V4.37207C6.05349 4.00072 5.75319 3.70041 5.38184 3.7002C5.0103 3.7002 4.7092 4.00059 4.70898 4.37207V7.39941H4.03613V4.37207C4.03591 4.00059 3.73482 3.7002 3.36328 3.7002C2.99174 3.7002 2.69065 4.00059 2.69043 4.37207V7.39941H1.34473V3.7002L1.00879 3.02734H9.75391L9.41797 3.7002ZM10.0908 2.01855V2.69043H0.671875V2.01855L5.38184 0L10.0908 2.01855Z"/>
</mask>
<path d="M9.41797 8.40918H10.0908V9.08105H10.7627V9.41797H0V9.08105H0.651367V8.40918H1.34473V7.73633H9.41797V8.40918ZM9.41797 3.7002V7.39941H8.07227V4.37207C8.07205 4.00059 7.77095 3.7002 7.39941 3.7002C7.02795 3.70028 6.72678 4.00064 6.72656 4.37207V7.39941H6.05371V4.37207C6.05349 4.00072 5.75319 3.70041 5.38184 3.7002C5.0103 3.7002 4.7092 4.00059 4.70898 4.37207V7.39941H4.03613V4.37207C4.03591 4.00059 3.73482 3.7002 3.36328 3.7002C2.99174 3.7002 2.69065 4.00059 2.69043 4.37207V7.39941H1.34473V3.7002L1.00879 3.02734H9.75391L9.41797 3.7002ZM10.0908 2.01855V2.69043H0.671875V2.01855L5.38184 0L10.0908 2.01855Z" fill="#E7F6F5"/>
<path d="M9.41797 8.40918H9.19979V8.62736H9.41797V8.40918ZM10.0908 8.40918H10.309V8.191H10.0908V8.40918ZM10.0908 9.08105H9.87264V9.29924H10.0908V9.08105ZM10.7627 9.08105H10.9809V8.86287H10.7627V9.08105ZM10.7627 9.41797V9.63615H10.9809V9.41797H10.7627ZM0 9.41797H-0.218182V9.63615H0V9.41797ZM0 9.08105V8.86287H-0.218182V9.08105H0ZM0.651367 9.08105V9.29924H0.869549V9.08105H0.651367ZM0.651367 8.40918V8.191H0.433185V8.40918H0.651367ZM1.34473 8.40918V8.62736H1.56291V8.40918H1.34473ZM1.34473 7.73633V7.51815H1.12654V7.73633H1.34473ZM9.41797 7.73633H9.63615V7.51815H9.41797V7.73633ZM9.41797 3.7002L9.22276 3.60273L9.19979 3.64876V3.7002H9.41797ZM9.41797 7.39941V7.6176H9.63615V7.39941H9.41797ZM8.07227 7.39941H7.85408V7.6176H8.07227V7.39941ZM8.07227 4.37207H8.29045V4.37194L8.07227 4.37207ZM7.39941 3.7002V3.48201H7.39936L7.39941 3.7002ZM6.72656 4.37207L6.50838 4.37194V4.37207H6.72656ZM6.72656 7.39941V7.6176H6.94474V7.39941H6.72656ZM6.05371 7.39941H5.83553V7.6176H6.05371V7.39941ZM6.05371 4.37207H6.27189V4.37194L6.05371 4.37207ZM5.38184 3.7002L5.38196 3.48201H5.38184V3.7002ZM4.70898 4.37207L4.4908 4.37194V4.37207H4.70898ZM4.70898 7.39941V7.6176H4.92717V7.39941H4.70898ZM4.03613 7.39941H3.81795V7.6176H4.03613V7.39941ZM4.03613 4.37207H4.25431V4.37194L4.03613 4.37207ZM3.36328 3.7002V3.48201H3.36328L3.36328 3.7002ZM2.69043 4.37207L2.47225 4.37194V4.37207H2.69043ZM2.69043 7.39941V7.6176H2.90861V7.39941H2.69043ZM1.34473 7.39941H1.12654V7.6176H1.34473V7.39941ZM1.34473 3.7002H1.56291V3.64876L1.53993 3.60273L1.34473 3.7002ZM1.00879 3.02734V2.80916H0.655993L0.813585 3.1248L1.00879 3.02734ZM9.75391 3.02734L9.94911 3.1248L10.1067 2.80916H9.75391V3.02734ZM10.0908 2.01855H10.309V1.8747L10.1768 1.81802L10.0908 2.01855ZM10.0908 2.69043V2.90861H10.309V2.69043H10.0908ZM0.671875 2.69043H0.453693V2.90861H0.671875V2.69043ZM0.671875 2.01855L0.585929 1.81801L0.453693 1.87469V2.01855H0.671875ZM5.38184 0L5.4678 -0.200534L5.38184 -0.237379L5.29589 -0.200541L5.38184 0ZM9.41797 8.40918V8.62736H10.0908V8.40918V8.191H9.41797V8.40918ZM10.0908 8.40918H9.87264V9.08105H10.0908H10.309V8.40918H10.0908ZM10.0908 9.08105V9.29924H10.7627V9.08105V8.86287H10.0908V9.08105ZM10.7627 9.08105H10.5445V9.41797H10.7627H10.9809V9.08105H10.7627ZM10.7627 9.41797V9.19979H0V9.41797V9.63615H10.7627V9.41797ZM0 9.41797H0.218182V9.08105H0H-0.218182V9.41797H0ZM0 9.08105V9.29924H0.651367V9.08105V8.86287H0V9.08105ZM0.651367 9.08105H0.869549V8.40918H0.651367H0.433185V9.08105H0.651367ZM0.651367 8.40918V8.62736H1.34473V8.40918V8.191H0.651367V8.40918ZM1.34473 8.40918H1.56291V7.73633H1.34473H1.12654V8.40918H1.34473ZM1.34473 7.73633V7.95451H9.41797V7.73633V7.51815H1.34473V7.73633ZM9.41797 7.73633H9.19979V8.40918H9.41797H9.63615V7.73633H9.41797ZM9.41797 3.7002H9.19979V7.39941H9.41797H9.63615V3.7002H9.41797ZM9.41797 7.39941V7.18123H8.07227V7.39941V7.6176H9.41797V7.39941ZM8.07227 7.39941H8.29045V4.37207H8.07227H7.85408V7.39941H8.07227ZM8.07227 4.37207L8.29045 4.37194C8.29016 3.87978 7.89117 3.48201 7.39941 3.48201V3.7002V3.91838C7.65074 3.91838 7.85394 4.1214 7.85408 4.3722L8.07227 4.37207ZM7.39941 3.7002L7.39936 3.48201C6.90778 3.48213 6.50867 3.87978 6.50838 4.37194L6.72656 4.37207L6.94474 4.3722C6.94489 4.12151 7.14813 3.91844 7.39947 3.91838L7.39941 3.7002ZM6.72656 4.37207H6.50838V7.39941H6.72656H6.94474V4.37207H6.72656ZM6.72656 7.39941V7.18123H6.05371V7.39941V7.6176H6.72656V7.39941ZM6.05371 7.39941H6.27189V4.37207H6.05371H5.83553V7.39941H6.05371ZM6.05371 4.37207L6.27189 4.37194C6.2716 3.8802 5.87371 3.4823 5.38196 3.48201L5.38184 3.7002L5.38171 3.91838C5.63266 3.91852 5.83538 4.12125 5.83553 4.3722L6.05371 4.37207ZM5.38184 3.7002V3.48201C4.89008 3.48201 4.49109 3.87978 4.4908 4.37194L4.70898 4.37207L4.92717 4.3722C4.92731 4.1214 5.13051 3.91838 5.38184 3.91838V3.7002ZM4.70898 4.37207H4.4908V7.39941H4.70898H4.92717V4.37207H4.70898ZM4.70898 7.39941V7.18123H4.03613V7.39941V7.6176H4.70898V7.39941ZM4.03613 7.39941H4.25431V4.37207H4.03613H3.81795V7.39941H4.03613ZM4.03613 4.37207L4.25431 4.37194C4.25402 3.87978 3.85503 3.48201 3.36328 3.48201V3.7002V3.91838C3.6146 3.91838 3.8178 4.1214 3.81795 4.3722L4.03613 4.37207ZM3.36328 3.7002L3.36328 3.48201C2.87153 3.48201 2.47254 3.87978 2.47225 4.37194L2.69043 4.37207L2.90861 4.3722C2.90876 4.1214 3.11196 3.91838 3.36328 3.91838L3.36328 3.7002ZM2.69043 4.37207H2.47225V7.39941H2.69043H2.90861V4.37207H2.69043ZM2.69043 7.39941V7.18123H1.34473V7.39941V7.6176H2.69043V7.39941ZM1.34473 7.39941H1.56291V3.7002H1.34473H1.12654V7.39941H1.34473ZM1.34473 3.7002L1.53993 3.60273L1.20399 2.92988L1.00879 3.02734L0.813585 3.1248L1.14952 3.79766L1.34473 3.7002ZM1.00879 3.02734V3.24553H9.75391V3.02734V2.80916H1.00879V3.02734ZM9.75391 3.02734L9.5587 2.92988L9.22276 3.60273L9.41797 3.7002L9.61317 3.79766L9.94911 3.1248L9.75391 3.02734ZM10.0908 2.01855H9.87264V2.69043H10.0908H10.309V2.01855H10.0908ZM10.0908 2.69043V2.47225H0.671875V2.69043V2.90861H10.0908V2.69043ZM0.671875 2.69043H0.890057V2.01855H0.671875H0.453693V2.69043H0.671875ZM0.671875 2.01855L0.757821 2.2191L5.46778 0.200541L5.38184 0L5.29589 -0.200541L0.585929 1.81801L0.671875 2.01855ZM5.38184 0L5.29588 0.200534L10.0049 2.21909L10.0908 2.01855L10.1768 1.81802L5.4678 -0.200534L5.38184 0Z" fill="#E7F6F5" mask="url(#path-1-inside-1_5181_64745)"/>
</svg>
