<svg width="100%" height="100%" viewBox="0 0 57 63" fill="none" xmlns="http://www.w3.org/2000/svg">
<path d="M55.9375 54.0947C56.2425 54.0947 56.534 54.2264 56.7383 54.4531C56.9424 54.6825 57.0402 54.9871 57.0039 55.292C56.9759 55.5774 56.1027 62.3192 44.123 62.3193H12.9033C0.925712 62.3193 0.0500805 55.5774 0.0078125 55.292C-0.0284738 54.9872 0.0694399 54.6825 0.273438 54.4531C0.477728 54.2264 0.76918 54.0947 1.07422 54.0947H55.9375ZM45.3633 24.4365C45.9565 24.4365 46.4384 24.9175 46.4385 25.5107V26.7705H46.9102C51.2393 26.7705 54.7489 30.2795 54.749 34.6084C54.749 38.9376 51.2391 42.4473 46.9102 42.4473H44.3623C43.6826 44.0932 42.8421 45.6775 41.8457 47.1738C39.8056 50.2575 36.3518 52.1071 32.6553 52.1016H23.2979C19.6011 52.1072 16.1474 50.2576 14.1074 47.1738C11.1047 42.6683 9.50404 37.3726 9.50684 31.958V25.5107C9.50688 24.9176 9.98792 24.4367 10.5811 24.4365H45.3633ZM46.4385 31.958C46.4414 34.8035 46.0008 37.616 45.1475 40.2979H46.9102C50.0528 40.2979 52.5996 37.7511 52.5996 34.6084C52.5994 31.4659 50.0527 28.9199 46.9102 28.9199H46.4385V31.958ZM38.4414 8.63086C38.6401 8.63086 38.7998 8.79336 38.7998 8.98926C38.8753 9.57127 38.8591 10.1619 38.75 10.7383C38.6381 11.3371 38.4164 11.9079 38.0918 12.4229C37.7672 12.9349 37.3731 13.4027 36.917 13.8057C36.4524 14.2142 35.9289 14.5582 35.3691 14.8213H35.2959C34.7783 14.9948 34.2942 15.2522 33.8633 15.5879C33.4548 15.8929 33.1219 16.2879 32.8896 16.7412C32.6547 17.1889 32.501 17.673 32.4395 18.1738C32.4059 18.4368 32.3939 18.6999 32.4023 18.9629C32.3995 19.2035 32.4252 19.4446 32.4756 19.6797C32.5593 20.004 32.5091 20.3507 32.3359 20.6387C32.1596 20.9269 31.8761 21.1315 31.5459 21.207C31.2186 21.2825 30.8743 21.2237 30.5918 21.0391C30.3094 20.8572 30.1103 20.5693 30.0459 20.2393C30.0431 20.1777 30.0431 20.1183 30.0459 20.0596L30.002 20.0938C29.9628 19.6992 29.9628 19.3016 30.002 18.9043C30.0411 18.5293 30.108 18.1597 30.2031 17.7959C30.3906 17.0459 30.7123 16.3406 31.1572 15.7109C31.5938 15.0757 32.1701 14.5465 32.8389 14.1631C33.474 13.7937 34.1627 13.5311 34.8818 13.3828H34.8037C35.2515 13.2289 35.6796 13.0186 36.0713 12.75C36.4743 12.4785 36.8354 12.1483 37.1377 11.7705C37.4567 11.3955 37.7006 10.9674 37.8545 10.5029C38.0112 10.0244 38.0896 9.52624 38.084 9.02539V8.98926C38.084 8.79348 38.2429 8.63104 38.4414 8.63086ZM34.7676 0C34.9663 0 35.126 0.15971 35.126 0.358398C35.2239 1.26494 35.1765 2.18555 34.9834 3.07812C34.8883 3.53137 34.7535 3.97619 34.5801 4.4043C34.3926 4.82966 34.1719 5.23913 33.9229 5.63086C33.4164 6.39472 32.8008 7.08323 32.0957 7.6709C31.3738 8.2809 30.5758 8.78985 29.7168 9.18164H29.6436C29.2071 9.36067 28.7483 9.48931 28.3398 9.69629L28.3428 9.69922C27.9314 9.90071 27.5394 10.1418 27.1729 10.416C26.4481 10.9253 25.8461 11.5941 25.418 12.3721C24.9759 13.1415 24.6823 13.9866 24.5508 14.8652C24.4808 15.3102 24.4439 15.7614 24.4355 16.2119C24.43 16.6399 24.4581 17.0679 24.5225 17.4932V17.5439C24.6342 18.2211 24.1752 18.8586 23.498 18.9678C22.8209 19.0795 22.1834 18.6205 22.0742 17.9434C22.077 17.9389 22.0997 17.8989 22.0654 17.8594C22.0151 17.2747 22.0151 16.6872 22.0654 16.1025C22.1158 15.5429 22.2082 14.983 22.3369 14.4346C22.5999 13.3181 23.0615 12.2601 23.7051 11.3115C24.3459 10.3545 25.1917 9.55419 26.1768 8.96094C26.6525 8.6615 27.1534 8.40951 27.6738 8.20801C28.1886 8.00099 28.72 7.886 29.2432 7.72656H29.1816C29.179 7.72756 29.1764 7.7285 29.1738 7.72949L29.1709 7.72656H29.1816C29.9203 7.44425 30.6173 7.06738 31.2559 6.60449C31.9163 6.13715 32.5015 5.57135 32.9912 4.92773C33.2373 4.60891 33.4552 4.27316 33.6426 3.91797C33.8217 3.55702 33.9704 3.17912 34.0879 2.79297C34.3201 2.00387 34.4287 1.18102 34.4092 0.358398C34.4092 0.159774 34.569 0.000101874 34.7676 0Z" fill="currentColor"/>
</svg>
