<svg width="100%" height="100%" viewBox="0 0 24 24" fill="none" xmlns="http://www.w3.org/2000/svg">
<path d="M11.93 19.5C11.69 19.5 11.4586 19.413 11.2782 19.2551C10.5971 18.6595 9.94045 18.0998 9.36109 17.6062L9.35813 17.6036C7.65956 16.1561 6.19277 14.906 5.17221 13.6747C4.03138 12.298 3.5 10.9928 3.5 9.56693C3.5 8.18157 3.97504 6.90348 4.83751 5.96795C5.71027 5.02134 6.90783 4.5 8.20997 4.5C9.1832 4.5 10.0745 4.80769 10.859 5.41444C11.2549 5.72071 11.6138 6.09555 11.93 6.53277C12.2463 6.09555 12.6051 5.72071 13.0011 5.41444C13.7856 4.80769 14.6769 4.5 15.6501 4.5C16.9522 4.5 18.1498 5.02134 19.0226 5.96795C19.8851 6.90348 20.36 8.18157 20.36 9.56693C20.36 10.9928 19.8287 12.298 18.6879 13.6745C17.6673 14.906 16.2007 16.156 14.5024 17.6033C13.922 18.0978 13.2643 18.6584 12.5816 19.2553C12.4014 19.413 12.1699 19.5 11.93 19.5ZM8.20997 5.48763C7.18696 5.48763 6.24718 5.89591 5.56351 6.63734C4.86967 7.38997 4.4875 8.43034 4.4875 9.56693C4.4875 10.7662 4.93321 11.8387 5.93255 13.0445C6.89844 14.21 8.33513 15.4343 9.99859 16.852L10.0017 16.8546C10.5832 17.3502 11.2425 17.912 11.9286 18.512C12.6188 17.9109 13.2791 17.3481 13.8618 16.8517C15.5251 15.4341 16.9617 14.21 17.9276 13.0445C18.9268 11.8387 19.3725 10.7662 19.3725 9.56693C19.3725 8.43034 18.9903 7.38997 18.2965 6.63734C17.6129 5.89591 16.673 5.48763 15.6501 5.48763C14.9007 5.48763 14.2127 5.72586 13.6052 6.19562C13.0637 6.61445 12.6866 7.1439 12.4655 7.51436C12.3518 7.70486 12.1516 7.81857 11.93 7.81857C11.7084 7.81857 11.5082 7.70486 11.3945 7.51436C11.1735 7.1439 10.7964 6.61445 10.2548 6.19562C9.6473 5.72586 8.95925 5.48763 8.20997 5.48763Z" fill="currentColor"/>
</svg>
