<svg width="32" height="32" viewBox="0 0 32 32" fill="none" xmlns="http://www.w3.org/2000/svg">
<path d="M16.0127 7.33105C17.2173 7.33105 18.3393 7.55793 19.3848 8.00977V8.01074C20.4436 8.46855 21.3597 9.08641 22.1377 9.86426C22.9156 10.6418 23.5334 11.5583 23.9912 12.6191C24.4436 13.6671 24.6719 14.7901 24.6719 15.9941C24.6719 17.1979 24.4433 18.3178 23.9912 19.3613V19.3623C23.5333 20.4196 22.9149 21.3371 22.1357 22.1201C21.3575 22.9022 20.4408 23.5233 19.3809 23.9824C18.3339 24.4357 17.2125 24.664 16.0098 24.6641C14.8063 24.6641 13.6855 24.437 12.6416 23.9863C11.5853 23.5303 10.6663 22.9084 9.87988 22.1221C9.09372 21.3358 8.47259 20.4171 8.0166 19.3604C7.56586 18.3158 7.33887 17.1943 7.33887 15.9893C7.33888 14.7844 7.56579 13.6625 8.0166 12.6172C8.47243 11.5605 9.09267 10.6461 9.87695 9.86816C10.6629 9.08845 11.583 8.46887 12.6416 8.01074C13.6863 7.55855 14.8078 7.33107 16.0127 7.33105ZM16 7.56836C13.6777 7.56836 11.6774 8.38979 10.0381 10.0195C8.39647 11.6517 7.57129 13.66 7.57129 16.0029C7.57129 18.3265 8.39765 20.3267 10.0361 21.9658C11.6754 23.6054 13.6807 24.4316 16.0137 24.4316C18.3426 24.4316 20.3435 23.6054 21.9775 21.9658C23.6111 20.3262 24.4336 18.3206 24.4336 15.9883C24.4335 13.6607 23.6125 11.6606 21.9814 10.0264C20.3492 8.39094 18.342 7.56843 16 7.56836ZM16.0684 15.7471C16.0991 15.7471 16.112 15.752 16.1143 15.7529C16.116 15.7536 16.1218 15.7567 16.1338 15.7686H16.1348C16.1471 15.7808 16.149 15.7871 16.1494 15.7881C16.15 15.7896 16.1543 15.8015 16.1543 15.8311V19.9072C16.1543 19.9379 16.1494 19.9508 16.1484 19.9531C16.1476 19.9552 16.1448 19.9615 16.1338 19.9727C16.1278 19.9787 16.1239 19.9822 16.1221 19.9834C16.1205 19.9845 16.1192 19.9849 16.1182 19.9854C16.1171 19.9858 16.1048 19.9902 16.0742 19.9902C16.0436 19.9902 16.0306 19.9853 16.0283 19.9844C16.0261 19.9835 16.0199 19.9807 16.0088 19.9697V19.9688C15.997 19.957 15.9937 19.9516 15.9932 19.9502C15.9925 19.9487 15.9883 19.9368 15.9883 19.9072V15.8311C15.9883 15.8004 15.9932 15.7875 15.9941 15.7852C15.9948 15.7834 15.9971 15.7774 16.0088 15.7656C16.0148 15.7595 16.0186 15.7562 16.0205 15.7549C16.0221 15.7538 16.0234 15.7534 16.0244 15.7529C16.0255 15.7525 16.0378 15.7471 16.0684 15.7471ZM16.0029 12.4473C16.07 12.4473 16.0964 12.4631 16.127 12.4941C16.1543 12.522 16.1767 12.5552 16.1768 12.6445C16.1768 12.6736 16.1736 12.6933 16.167 12.709L16.1367 12.75C16.1081 12.7778 16.0784 12.7958 16.0029 12.7959C15.927 12.7959 15.8968 12.7777 15.8682 12.75C15.842 12.7246 15.8281 12.7037 15.8281 12.6416C15.8281 12.5974 15.8338 12.5669 15.8428 12.5439L15.8779 12.4912C15.9035 12.465 15.9283 12.4473 16.0029 12.4473Z" fill="currentColor" stroke="currentColor" stroke-width="1.33333"/>
</svg>
