<svg width="24" height="24" viewBox="0 0 24 24" fill="none" xmlns="http://www.w3.org/2000/svg">
<g clip-path="url(#clip0_3102_62190)">
<path d="M18.8571 0.242493H5.14286C2.30674 0.242493 0 2.54929 0 5.38535V19.0996C0 21.9357 2.3068 24.2425 5.14286 24.2425H18.8571C21.6933 24.2425 24 21.9357 24 19.0996V5.38535C24 2.54924 21.6932 0.242493 18.8571 0.242493ZM22.2857 19.0996C22.2857 20.9907 20.7482 22.5282 18.8571 22.5282H5.14286C3.25179 22.5282 1.71429 20.9907 1.71429 19.0996V5.38535C1.71429 3.49429 3.25179 1.95678 5.14286 1.95678H18.8571C20.7482 1.95678 22.2857 3.49429 22.2857 5.38535V19.0996ZM12 5.38535C8.21897 5.38535 5.14286 8.46146 5.14286 12.2425C5.14286 16.0235 8.21897 19.0996 12 19.0996C15.781 19.0996 18.8571 16.0235 18.8571 12.2425C18.8571 8.46146 15.781 5.38535 12 5.38535ZM12 17.3853C9.16389 17.3853 6.85714 15.0786 6.85714 12.2425C6.85714 9.40643 9.16394 7.09964 12 7.09964C14.8361 7.09964 17.1429 9.40643 17.1429 12.2425C17.1429 15.0786 14.8361 17.3853 12 17.3853ZM19.4658 4.77671C19.6201 4.93957 19.7144 5.16241 19.7144 5.38529C19.7144 5.60818 19.6201 5.83101 19.4658 5.99388C19.3029 6.14817 19.0801 6.24245 18.8572 6.24245C18.6343 6.24245 18.4115 6.14817 18.2486 5.99388C18.0943 5.83102 18 5.60818 18 5.38529C18 5.16241 18.0943 4.93958 18.2486 4.77671C18.5657 4.46814 19.1401 4.45958 19.4658 4.77671Z" fill="currentColor"/>
</g>
<defs>
<clipPath id="clip0_3102_62190">
<rect width="24" height="24" fill="transparent"/>
</clipPath>
</defs>
</svg>
