<svg width="1024" height="544" viewBox="0 0 1024 544" fill="none" xmlns="http://www.w3.org/2000/svg">
<path opacity="0.5" d="M1496.32 282.239C1491.42 282.722 1452.92 256.387 1418.9 230.136C1406.59 220.633 1379.2 219.187 1348.31 232.592C1312.17 248.279 1327.19 312.913 1313.1 319.046C1264.2 340.331 1251.31 337.076 1241.9 348.914C1225.15 369.964 1222.71 418.132 1209.78 438.614C1205.35 445.637 1186.21 460.251 1156.07 483.327C1115.54 514.359 1080.43 529.474 1056.38 538.385C1038.24 545.104 1006.77 542.611 975.927 542.121C961.85 541.898 951.502 535.844 936.025 526.045C919.451 515.552 876.804 403.764 852.628 380.862C832.378 361.68 802.903 348.117 774.007 334.084C746.402 320.678 716.125 330.038 672.022 352.788C637.424 370.634 609.194 381.607 589.798 392.06C546.781 415.243 538.441 422.369 530.89 429.555C518.608 441.245 479.102 417.134 448.382 388.656C426.419 368.296 420.007 343.492 415.971 331.279C410.967 316.135 409.68 269.8 402.051 239.747C396.325 217.19 363.404 213.546 347.685 204.6C334.203 196.927 332.629 174.033 331.46 154.416C331.191 149.91 329.161 147.157 327.052 145.408C303.206 125.631 250.534 169.75 216.391 144.316C195.504 128.757 170.911 86.2734 142.538 81.6328C80.867 71.5458 64.6735 59.5988 49.9771 52.9855C20.9497 39.9234 6.71768 12.7598 -4.76216 5.65525C-21.3798 -4.62889 -48.5806 4.2048 -64.8485 10.685C-81.4363 17.2926 -92.1113 28.2503 -96.5226 31.4581C-112.713 43.2312 -117.099 96.0324 -121.509 116.929C-123.72 127.406 -133.453 141.694 -146.419 175.012C-155.099 197.318 -165.571 252.015 -182.321 281.509C-199.105 323.485 -221.301 374.396 -237.619 405.802C-272.6 473.126 -299.901 478.689 -315.786 482.077C-329.255 484.949 -411.676 438.434 -448.294 426.904C-461.358 422.791 -466.625 411.302 -467.818 404.685C-468.736 396.528 -469.567 385.661 -470.574 374.248C-471.147 369.126 -471.846 365.361 -472.566 361.483" stroke="currentColor" stroke-width="1.8963"/>
</svg>
