<svg width="2160" height="1148" viewBox="0 0 2160 1148" fill="none" xmlns="http://www.w3.org/2000/svg">
<path d="M3156.31 595.348C3145.97 596.367 3064.75 540.817 2993 485.442C2967.03 465.399 2909.25 462.348 2844.1 490.624C2767.85 523.713 2799.54 660.05 2769.82 672.988C2666.67 717.886 2639.49 711.02 2619.62 735.991C2584.3 780.392 2579.16 881.996 2551.89 925.202C2542.53 940.015 2502.17 970.842 2438.59 1019.52C2353.09 1084.98 2279.02 1116.86 2228.3 1135.66C2190.04 1149.83 2123.66 1144.57 2058.6 1143.54C2028.9 1143.07 2007.07 1130.3 1974.43 1109.63C1939.47 1087.49 1849.51 851.689 1798.51 803.382C1755.8 762.92 1693.62 734.309 1632.67 704.708C1574.44 676.43 1510.58 696.174 1417.55 744.161C1344.57 781.807 1285.02 804.952 1244.11 827.001C1153.37 875.902 1135.77 890.935 1119.85 906.093C1093.94 930.751 1010.61 879.892 945.806 819.821C899.477 776.874 885.952 724.553 877.439 698.791C866.883 666.846 864.167 569.109 848.075 505.717C835.997 458.135 766.554 450.448 733.397 431.578C704.958 415.393 701.639 367.101 699.173 325.721C698.607 316.217 694.323 310.409 689.875 306.719C639.575 265.002 528.47 358.067 456.449 304.416C412.391 271.597 360.515 181.983 300.666 172.194C170.579 150.917 136.42 125.716 105.42 111.766C44.1904 84.2134 14.1699 26.9151 -10.0453 11.929C-45.0981 -9.76412 -102.475 8.86944 -136.79 22.5386C-171.78 36.4765 -194.298 59.5905 -203.603 66.3568C-237.754 91.1907 -247.006 202.568 -256.308 246.647C-260.972 268.746 -281.503 298.886 -308.853 369.166C-327.163 416.218 -349.252 531.594 -384.584 593.809C-419.988 682.352 -466.807 789.741 -501.228 855.989C-575.016 997.999 -632.604 1009.74 -666.11 1016.88C-694.523 1022.94 -868.378 924.821 -945.62 900.501C-973.178 891.825 -984.288 867.591 -986.803 853.632C-988.74 836.426 -990.493 813.504 -992.617 789.43C-993.826 778.624 -995.301 770.684 -996.82 762.502" stroke="currentColor" stroke-width="4"/>
</svg>
