<svg width="25" height="35" viewBox="0 0 25 35" fill="none" xmlns="http://www.w3.org/2000/svg">
<path fill-rule="evenodd" clip-rule="evenodd" d="M11.0794 33.7356C11.5486 34.386 11.8254 35 12.5015 35C13.1776 35 13.4528 34.3876 13.9221 33.7372C19.6836 25.7632 25 18.4033 25 12.433C25 5.5669 19.4038 0 12.5 0C5.59619 0 0 5.5669 0 12.4346C0 18.4033 5.31785 25.7633 11.0794 33.7356ZM12.4999 6.22199C18.0419 6.22199 20.8388 12.9203 16.9143 16.8243C12.9899 20.7281 6.25623 17.9462 6.25623 12.433C6.25623 9.0039 9.05278 6.22199 12.4999 6.22199Z" fill="currentColor"/>
</svg>
