<svg width="211" height="250" viewBox="0 0 211 250" fill="none" xmlns="http://www.w3.org/2000/svg">
<g clip-path="url(#clip0_6204_1695)">
<path d="M182.032 171.217L181.392 171.856L180.745 171.217C176.599 167.108 170.715 167.334 164.492 167.575C160.489 167.725 156.365 167.883 152.43 166.927C154.251 176.19 162.58 180.735 169.962 184.768C174.68 187.349 179.18 189.802 181.385 193.234C183.589 189.795 188.097 187.342 192.822 184.761C200.219 180.728 208.556 176.183 210.385 166.92C206.442 167.883 202.311 167.725 198.3 167.567C192.062 167.334 186.17 167.101 182.032 171.209V171.217Z" fill="#102838" style="mix-blend-mode:multiply"/>
<path d="M41.2297 95.7969C35.4734 95.7969 31.237 93.9684 28.6485 90.3641C26.1277 87.0307 25.5859 84.0659 25.5859 73.6668V31.2653C25.5859 22.3335 26.3685 19.0151 29.2128 15.8246C31.6508 13.2888 35.6841 12.1074 41.9145 12.1074C53.3746 12.1074 57.4379 16.404 57.4379 28.5263V33.6581C57.4379 37.6387 58.1829 40.483 59.7179 42.3416H46.1133V29.7904C46.1133 23.402 45.263 21.9347 41.5759 21.9347C39.6345 21.9347 38.1898 22.8527 37.7232 24.3952C37.3771 25.7948 37.2642 27.4954 37.2642 31.3857V78.4601C37.2642 79.9198 37.2642 80.9733 37.3771 81.7785C37.6029 84.397 39.168 85.9622 41.5759 85.9622C44.5256 85.9622 45.7747 84.2541 45.8875 80.0553L46.0004 76.5187V63.7343H59.1912C58.2355 65.4725 57.6636 68.9037 57.6636 72.9746V79.4834C57.6636 90.3114 52.133 95.8045 41.2297 95.8045V95.7969Z" fill="#102838" style="mix-blend-mode:multiply"/>
<path d="M119.181 68.0092C119.918 67.1664 120.234 66.7074 120.648 65.7518C121.799 63.1558 122.048 62.0572 122.048 56.361V22.9589H118.285C115.832 22.9589 111.573 23.1546 110.016 24.4338V13.3574H145.6V24.4488C143.937 23.1546 139.738 22.9589 137.323 22.9589H133.598V56.361C133.598 61.8088 133.816 63.3063 134.96 65.7518C135.344 66.6999 135.652 67.1137 136.126 67.7308L136.337 68.0092H119.181Z" fill="#102838" style="mix-blend-mode:multiply"/>
<path d="M151.14 67.204C153.3 64.6456 153.992 61.7637 153.992 55.5558V24.0801C153.992 18.8203 153.383 15.9835 151.682 13.3574H182.526V24.9229C180.554 23.4706 178.026 22.7332 174.986 22.7332H165.738V35.0586H170.404C173.564 35.0586 177.898 34.4717 180.095 33.185V46.4133C177.236 44.5924 172.059 44.4419 170.516 44.4419H165.738V57.3618H170.629C173.474 57.3618 179.644 56.9705 182.864 55.4806V67.204H151.133H151.14Z" fill="#102838" style="mix-blend-mode:multiply"/>
<path d="M48.8513 185.341L33.8621 132.54V172.196C33.8621 175.348 34.1707 178.983 34.6598 181.684C34.9984 183.272 35.2316 183.972 36.0744 185.341H20.25C22.3569 182.805 23.1094 179.72 23.1094 173.693V114.76C23.1094 108.108 22.7407 106.317 20.8294 104.135H36.1722L49.8972 154.776V116.573C49.8972 110.245 49.205 106.505 47.5947 104.135H62.5312C61.3498 106.37 60.8833 109.372 60.8833 114.76V173.693C60.8833 180.51 61.3272 183.189 62.8397 185.341H48.8438H48.8513Z" fill="#102838" style="mix-blend-mode:multiply"/>
<path d="M85.5522 187.311C79.6604 187.311 74.7468 185.445 72.4141 182.322C70.0137 179.245 69.3516 175.851 69.3516 166.551V39.632C69.3516 30.4519 70.0062 27.0582 72.4141 23.8602C74.5436 20.8353 79.7055 18.8789 85.5522 18.8789C91.3989 18.8789 96.3576 20.7375 98.6903 23.8602C101.098 26.9303 101.753 30.3239 101.753 39.632V166.543C101.753 176.115 101.151 179.207 98.6903 182.315C96.5457 185.4 91.5117 187.311 85.5447 187.311H85.5522ZM85.3265 28.4804C82.3467 28.4804 81.3534 30.0832 81.2406 35.072L81.1277 39.5116V166.656L81.2406 171.096C81.3534 176.453 82.2263 177.687 85.8983 177.687C88.833 177.687 89.8714 175.964 89.8714 171.096L89.9842 166.656V39.5116L89.8714 35.072C89.8714 29.8348 88.9383 28.4804 85.334 28.4804H85.3265Z" fill="#102838" style="mix-blend-mode:multiply"/>
<path d="M132.657 185.34V156.994C132.657 151.012 131.386 149.372 126.751 149.372H123.229V173.691C123.229 179.41 123.996 183.12 125.637 185.34H108.586C110.67 182.857 111.445 180.215 111.445 175.693V90.2277C111.445 82.2515 111.031 79.9038 109.15 77.5938H126.969C134.019 77.5938 136.984 78.3086 139.663 80.6488C142.033 82.7783 143.29 86.2622 143.29 90.7243V137.28C143.192 138.318 143.079 139.514 142.733 140.666C142.297 142.298 141.311 143.337 139.347 144.255L139.166 144.338L139.347 144.42C143.245 146.249 144.434 149.078 144.434 156.543V172.54C144.434 179.139 145.141 182.759 146.962 185.34H132.65H132.657ZM123.229 139.755H127.089C129.407 139.755 130.889 139.326 131.514 138.468C131.98 137.633 132.086 137.061 132.086 133.397V93.0043C132.086 90.175 131.875 89.114 131.16 88.2713C130.52 87.6392 129.121 86.977 127.089 86.977H123.229V139.755Z" fill="#102838" style="mix-blend-mode:multiply"/>
<path d="M152.047 151.141C152.724 150.343 153.07 149.869 153.522 148.883C154.793 146.22 154.891 145.023 154.891 139.492V88.4601C154.891 81.7405 154.545 80.0324 152.611 77.7148H165.825C175.652 77.7148 179.354 78.3544 182.326 80.5517C185.133 82.6887 186.39 86.8197 186.39 93.9305V130.711C186.39 141.848 185.705 144.233 181.529 147.74C178.459 150.245 174.32 151.133 165.712 151.133H152.047V151.141ZM166.178 141.524H168.661C173.244 141.524 174.719 140.794 174.719 132.096V95.0743C174.719 88.3096 173.131 87.1056 168.661 87.1056H166.178V141.524Z" fill="#102838" style="mix-blend-mode:multiply"/>
<path d="M137.982 193.234C135.416 194.303 127.221 197.561 121.51 198.223C112.872 199.209 98.1459 198.72 82.5623 198.201C77.2198 198.02 71.6967 197.839 66.4746 197.719C62.9906 201.165 60.5677 204.807 59.2734 208.57C78.4463 214.183 92.5927 223.265 99.2671 234.244C110.607 232.822 121.646 230.527 132.09 227.411C143.001 218.871 149.163 208.803 149.961 198.231H143.587C141.022 198.231 138.862 194.845 137.974 193.234H137.982Z" fill="#102838" style="mix-blend-mode:multiply"/>
<path d="M58.1641 215.017C58.1641 222.158 62.0769 229.247 69.4887 235.53C72.6039 235.891 75.4859 236.026 78.0518 235.936C84.5305 235.71 90.9867 235.221 97.2698 234.484C90.6556 224.205 77.0736 215.672 58.7585 210.314C58.3672 211.887 58.1641 213.46 58.1641 215.017Z" fill="#102838" style="mix-blend-mode:multiply"/>
<path d="M55.131 197.214C52.6855 197.018 50.3679 196.83 48.1707 196.83C41.5264 196.83 33.5201 197.778 27.0865 198.538C24.3777 198.862 22.03 199.14 20.2541 199.283C12.8047 199.93 7.57505 200.954 4.22656 202.444C7.25148 202.293 10.2388 202.218 13.196 202.218C18.847 202.218 24.4002 202.489 29.9986 203.03C39.1637 203.918 45.8079 205.363 45.8681 205.378C49.8788 206.123 53.7992 207.026 57.5013 208.057C58.7278 204.453 60.8949 200.969 63.965 197.658L62.5127 197.628C59.9769 197.59 57.5088 197.394 55.116 197.199L55.131 197.214Z" fill="#102838" style="mix-blend-mode:multiply"/>
<path d="M19.1332 205.914C17.8239 205.951 16.5071 205.996 15.1752 206.057C13.3843 206.139 11.5634 206.252 9.60696 206.41L9.14795 206.448C7.21411 206.613 5.48344 206.779 3.85811 206.96L3.61732 206.982C2.45099 207.118 1.29971 207.268 0.148438 207.419C1.51793 210.045 8.78677 216.2 41.7373 228.36L41.9631 228.443L42.1136 228.623C53.4834 241.859 66.2151 249.813 76.1628 249.903C79.7445 249.926 82.8597 248.925 85.2752 246.968C78.5932 245.764 69.368 237.848 68.5177 237.104C60.549 230.422 56.3352 222.784 56.3352 215.019C56.3352 213.295 56.561 211.55 56.9974 209.819C53.3479 208.803 49.4953 207.915 45.5223 207.178C39.51 206.41 33.2345 205.966 26.9212 205.876H26.6955C25.484 205.861 24.265 205.854 23.0385 205.854L22.4817 205.869C21.3605 205.869 20.2393 205.884 19.1332 205.914Z" fill="#102838" style="mix-blend-mode:multiply"/>
<path d="M173.542 198.23H151.795C151.088 208.207 145.881 217.719 136.641 225.988C148.56 222.09 156.762 218.035 161.389 215.74L161.713 215.582C174.836 208.975 179.125 202.91 180.412 198.982C180.893 197.515 180.976 196.281 180.916 195.348C179.704 196.695 177.47 198.222 173.549 198.222L173.542 198.23Z" fill="#102838" style="mix-blend-mode:multiply"/>
<path d="M85.1434 0.134766L100.163 16.4107L85.3164 9.89428L70.3047 16.4182L85.1434 0.134766Z" fill="#102838" style="mix-blend-mode:multiply"/>
</g>
<defs>
<clipPath id="clip0_6204_1695">
<rect width="210.503" height="250" fill="white"/>
</clipPath>
</defs>
</svg>
