<svg width="16" height="15" viewBox="0 0 16 15" fill="none" xmlns="http://www.w3.org/2000/svg">
<path d="M15.1921 0.104386C14.9758 -0.0269993 14.7017 -0.0349441 14.4766 0.0838717L10.2097 2.3428L5.94601 0.0852947C5.92704 0.0750969 5.90759 0.0663221 5.88719 0.0586145C5.863 0.0484167 5.83751 0.0394047 5.81012 0.0312228L5.803 0.0290884C5.78628 0.0241081 5.76956 0.0196021 5.75273 0.0159261L5.74561 0.0145032C5.69925 0.00525406 5.65881 0.00264534 5.63261 0.00157811C5.61683 0.000629481 5.59751 -0.000200547 5.57355 0.000629481L5.56585 0.0011038C5.52162 0.00347537 5.48379 0.0103529 5.45699 0.0161633C5.45094 0.0172305 5.44288 0.018772 5.43304 0.0209064L5.41134 0.0242266L0.496963 1.66239C0.199686 1.76117 0 2.03817 0 2.35157V14.0028C0 14.2355 0.112768 14.4558 0.303206 14.5932C0.427476 14.6821 0.573802 14.729 0.726176 14.729C0.805505 14.729 0.88353 14.7161 0.955744 14.6916L5.57652 13.1514L9.93167 14.9447C9.95444 14.9542 9.97756 14.9618 10.0015 14.9676C10.0724 14.9893 10.1408 15 10.2097 15C10.2731 15 10.338 14.991 10.4028 14.9731L10.4067 14.972C10.4295 14.9655 10.4476 14.9587 10.4633 14.9523C10.48 14.9466 10.5118 14.9355 10.5496 14.9156L15.1559 12.477C15.3942 12.3508 15.5423 12.1049 15.5423 11.8351V0.725738C15.5423 0.473165 15.4081 0.235178 15.1921 0.104386ZM0.910566 13.747V2.48426L5.13564 1.0759L5.13789 12.3378L0.910566 13.747ZM9.75452 13.887L6.04834 12.361L6.04621 1.16863L9.75452 3.13205V13.887ZM14.6318 11.7243L10.6651 13.8243V3.13205L14.6318 1.03191V11.7243Z" fill="currentColor"/>
</svg>
