<svg width="100%" height="100%" viewBox="0 0 24 24" fill="none" xmlns="http://www.w3.org/2000/svg">
<path d="M19.8535 17.5869C20.2868 17.5869 20.6377 17.903 20.6377 18.293C20.6375 18.6828 20.2867 18.998 19.8535 18.998H3.7832C3.35024 18.9978 3.00017 18.6827 3 18.293C3 17.9031 3.35013 17.5871 3.7832 17.5869H19.8535ZM19.8535 11.2949C20.2866 11.2949 20.6374 11.6102 20.6377 12C20.6377 12.39 20.2868 12.7061 19.8535 12.7061H3.7832C3.35013 12.7058 3 12.3898 3 12C3.00025 11.6104 3.35029 11.2952 3.7832 11.2949H19.8535ZM19.8535 5C20.2866 5 20.6374 5.31532 20.6377 5.70508C20.6377 6.09505 20.2868 6.41113 19.8535 6.41113H3.7832C3.35013 6.4109 3 6.0949 3 5.70508C3.00027 5.31546 3.3503 5.00023 3.7832 5H19.8535Z" fill="currentColor"/>
</svg>
