<svg width="168" height="168" viewBox="0 0 168 168" fill="none" xmlns="http://www.w3.org/2000/svg">
<path d="M83.0469 54.3779C83.7387 54.378 84.1505 54.5721 84.5195 54.9375V54.9385C84.8884 55.3057 85.0781 55.7058 85.0781 56.3779V90.8633C85.0781 91.6082 84.8705 92.0083 84.541 92.3379L84.5391 92.3398C84.203 92.6762 83.8071 92.8779 83.0869 92.8779C82.3806 92.8779 81.9805 92.6787 81.6309 92.3271C81.2684 91.9626 81.0762 91.5586 81.0762 90.876V56.3916C81.0762 55.6333 81.2873 55.2269 81.6113 54.8984C81.9211 54.5844 82.3037 54.3779 83.0469 54.3779ZM104.549 61.3779C105.241 61.3779 105.653 61.5719 106.022 61.9375V61.9385C106.391 62.3056 106.581 62.706 106.581 63.3779V80.041C106.581 80.7695 106.377 81.1687 106.043 81.5039C105.707 81.8398 105.31 82.042 104.589 82.042C103.959 82.042 103.57 81.8875 103.251 81.6182L103.118 81.4961C102.78 81.1592 102.578 80.7623 102.578 80.041V63.3779C102.578 62.634 102.785 62.2288 103.112 61.8965C103.423 61.5826 103.808 61.3779 104.549 61.3779ZM61.5439 61.3779C62.236 61.3779 62.6484 61.572 63.0176 61.9375V61.9385C63.3863 62.3056 63.5762 62.7059 63.5762 63.3779V76.876C63.5761 77.6071 63.3713 78.0047 63.0381 78.3379L63.0371 78.3398C62.7004 78.6768 62.3042 78.8779 61.5859 78.8779C60.8779 78.8778 60.4779 78.6781 60.1289 78.3271C59.7664 77.9626 59.5743 77.5587 59.5742 76.876V63.3779C59.5742 62.6351 59.7812 62.2311 60.1094 61.8984C60.4191 61.5846 60.8012 61.378 61.5439 61.3779ZM44.5781 122.789L43.4551 121.75C37.345 116.099 32.5708 109.555 29.1143 102.099L28.7842 101.374C25.3122 93.6341 23.5782 85.5211 23.5781 77.002C23.5781 60.1515 29.43 45.9417 41.1914 34.168C52.9528 22.3955 67.1473 16.5391 83.9795 16.5391C97.5873 16.5391 109.609 20.4111 120.164 28.1523L121.181 28.9141C131.973 37.1588 138.971 47.8197 142.247 61.0098L142.25 61.0205L151.917 99.4229L151.928 99.4639L151.938 99.5039C152.17 100.338 152.047 100.879 151.562 101.495C151.063 102.13 150.509 102.422 149.565 102.422H130.461V128.999C130.461 131.382 129.663 133.303 127.998 134.962C126.332 136.622 124.399 137.422 121.996 137.422H102.461V148.962C102.461 149.734 102.234 150.238 101.759 150.705C101.269 151.186 100.73 151.422 99.9238 151.422C99.1191 151.422 98.6229 151.188 98.1855 150.745L98.1836 150.744L98.0244 150.568C97.6762 150.151 97.4962 149.668 97.4961 148.962V134.962C97.4961 134.166 97.7282 133.654 98.1895 133.192C98.6507 132.731 99.1633 132.499 99.959 132.499H125.496V99.9619C125.496 99.1662 125.728 98.6536 126.189 98.1924C126.651 97.7312 127.163 97.499 127.959 97.499H146.302L145.216 93.1514L137.509 62.2803V62.2773L137.217 61.1611C134.199 50.0679 128.067 40.8602 118.908 33.6143L117.982 32.8955L117.042 32.1953C107.289 25.0754 96.2448 21.5039 84.0176 21.5039C68.6622 21.504 55.4905 26.8571 44.71 37.5195C33.9236 48.189 28.501 61.2795 28.501 76.5801C28.501 84.4969 30.1271 92.0618 33.376 99.2412V99.2422C36.6181 106.404 41.2127 112.733 47.1279 118.217L49.501 120.48V148.962C49.5009 149.75 49.27 150.26 48.8047 150.723C48.3388 151.186 47.8178 151.422 47.0088 151.422C46.2008 151.422 45.7024 151.188 45.2646 150.745H45.2656C44.8133 150.287 44.5782 149.77 44.5781 148.962V122.789Z" fill="currentColor" stroke="currentColor" stroke-width="7"/>
</svg>
