<svg width="12" height="12" viewBox="0 0 12 12" fill="none" xmlns="http://www.w3.org/2000/svg">
<path d="M4.86452 10.6379L5.24589 10.3112C5.4394 10.1438 5.68672 10.0516 5.94261 10.0516C6.19849 10.0515 6.44584 10.1436 6.6394 10.311L7.02077 10.6379C7.36887 10.9363 7.82125 11.0842 8.27838 11.049C8.73551 11.0139 9.15995 10.7986 9.45834 10.4505C9.75672 10.1024 9.90459 9.65 9.86944 9.19286C9.83428 8.73573 9.61897 8.31129 9.27087 8.01291L8.04532 6.96244C7.92795 6.86201 7.83373 6.73735 7.76915 6.59702C7.70457 6.45669 7.67117 6.30404 7.67123 6.14957V5.54299C7.67123 5.08454 7.48911 4.64486 7.16494 4.32069C6.84076 3.99651 6.40109 3.81439 5.94264 3.81439C5.48418 3.81439 5.04451 3.99651 4.72033 4.32069C4.39616 4.64486 4.21404 5.08454 4.21404 5.54299V6.14954C4.21411 6.30399 4.1807 6.45661 4.11612 6.5969C4.05154 6.73719 3.95732 6.86182 3.83995 6.96221L2.6144 8.01291C2.44204 8.16065 2.30046 8.3409 2.19776 8.54336C2.09506 8.74582 2.03324 8.96652 2.01583 9.19287C1.99842 9.41922 2.02577 9.64679 2.09631 9.86257C2.16685 10.0783 2.2792 10.2781 2.42694 10.4505C2.57469 10.6228 2.75494 10.7644 2.95739 10.8671C3.15985 10.9698 3.38056 11.0316 3.60691 11.0491C3.83326 11.0665 4.06082 11.0391 4.2766 10.9686C4.49238 10.898 4.69216 10.7857 4.86452 10.6379Z" fill="currentColor"/>
<path d="M3.54113 3.33419C3.73956 3.44579 3.96268 3.50617 4.19032 3.50988C4.35841 3.5112 4.52425 3.47118 4.67324 3.39333C4.84417 3.29355 4.98754 3.15277 5.09041 2.98369C5.19328 2.81461 5.2524 2.62257 5.26244 2.42491C5.29574 1.99083 5.20178 1.55646 4.99206 1.17494C4.79516 0.786565 4.4893 0.46402 4.11191 0.2468C3.94298 0.143641 3.75099 0.0842123 3.55332 0.0738872C3.35565 0.0635622 3.15852 0.102666 2.97976 0.187664C2.32631 0.532839 2.18619 1.50747 2.66097 2.40604C2.85787 2.79442 3.16374 3.11697 3.54113 3.33419Z" fill="currentColor"/>
<path d="M1.25181 3.49231C1.07835 3.45239 0.897686 3.45633 0.726133 3.50376C0.55458 3.5512 0.397552 3.64063 0.269241 3.76399C0.15112 3.89729 0.0681327 4.05797 0.0278015 4.23145C-0.0125297 4.40493 -0.00893002 4.58574 0.0382743 4.75748C0.130626 5.13033 0.32973 5.46815 0.611191 5.72955C0.938769 6.06509 1.38157 6.26367 1.85001 6.28511C1.98683 6.28914 2.12302 6.26506 2.25016 6.21435C2.3773 6.16364 2.49269 6.08738 2.58918 5.9903C2.7073 5.85699 2.79029 5.69631 2.83062 5.52283C2.87095 5.34935 2.86735 5.16854 2.82015 4.9968C2.72774 4.62397 2.52864 4.28617 2.24723 4.02474C1.97435 3.75413 1.62838 3.56908 1.25181 3.49231Z" fill="currentColor"/>
<path d="M7.19282 3.40832C7.345 3.48776 7.51437 3.52859 7.68603 3.52724C7.91895 3.52345 8.14724 3.46159 8.35021 3.34727C8.73782 3.12456 9.05193 2.79348 9.25393 2.39469C9.46926 2.00306 9.56576 1.55715 9.5316 1.11153C9.52139 0.909448 9.461 0.713097 9.35589 0.540205C9.25078 0.367313 9.10426 0.223326 8.92956 0.121248C8.25938 -0.232699 7.35523 0.213166 6.86844 1.13467C6.65293 1.52623 6.55643 1.9722 6.59077 2.41783C6.6009 2.61996 6.66125 2.81638 6.76637 2.98932C6.87149 3.16226 7.01806 3.30627 7.19282 3.40832Z" fill="currentColor"/>
<path d="M10.297 6.21742C10.6805 6.13264 11.0332 5.94396 11.3166 5.67206C11.5999 5.40016 11.803 5.05552 11.9035 4.67589C11.9517 4.5007 11.9554 4.31626 11.9143 4.13927C11.8732 3.96229 11.7887 3.79833 11.6683 3.66226C11.5374 3.53613 11.3771 3.4447 11.2019 3.39628C11.0267 3.34787 10.8422 3.344 10.6651 3.38502C10.2795 3.4638 9.9252 3.65338 9.6457 3.93052C8.9798 4.5692 8.82554 5.45193 9.2939 5.94043C9.39285 6.03921 9.51094 6.11673 9.64092 6.16823C9.7709 6.21974 9.91003 6.24415 10.0498 6.23996C10.1327 6.23971 10.2154 6.23217 10.297 6.21742Z" fill="currentColor"/>
</svg>
