<svg width="24" height="24" viewBox="0 0 24 24" fill="none" xmlns="http://www.w3.org/2000/svg">
<path d="M11.9986 21.8768C11.8083 21.8768 11.6194 21.8456 11.4321 21.7833C11.2448 21.7209 11.0808 21.6211 10.9403 21.4838C10.2163 20.8426 9.44008 20.1075 8.61159 19.2785C7.78292 18.4495 7.01559 17.557 6.30959 16.601C5.60359 15.645 5.01725 14.6433 4.55059 13.596C4.08392 12.5488 3.85059 11.4946 3.85059 10.4333C3.85059 7.8946 4.67025 5.87035 6.30959 4.36051C7.94875 2.85068 9.84558 2.09576 12.0001 2.09576C14.1546 2.09576 16.0524 2.85068 17.6936 4.36051C19.3349 5.87035 20.1556 7.8946 20.1556 10.4333C20.1556 11.4946 19.9213 12.5488 19.4526 13.596C18.9839 14.6433 18.3966 15.645 17.6906 16.601C16.9846 17.557 16.2173 18.4495 15.3886 19.2785C14.5601 20.1075 13.7858 20.8426 13.0658 21.4838C12.9207 21.6211 12.7541 21.7209 12.5661 21.7833C12.3781 21.8456 12.1889 21.8768 11.9986 21.8768Z" fill="currentColor"/>
<path d="M11.5752 9.78156L9.34863 7.82257L11.3379 10.0804L7.00098 10.513L11.2939 10.9417L9.34863 13.1507L11.5703 11.1946L12.001 15.513L12.4336 11.1751L14.6768 13.1507L12.7305 10.9388L17 10.513L12.6865 10.0823L14.6768 7.82257L12.4287 9.80206L12.001 5.50128L11.5752 9.78156Z" fill="var(--icon-accent, currentColor)"/>
</svg>
