<svg width="20" height="20" viewBox="0 0 20 20" fill="none" xmlns="http://www.w3.org/2000/svg">
<path d="M9.28719 10.7118H4.74885C4.54844 10.7118 4.38003 10.6432 4.24365 10.5059C4.10726 10.3689 4.03906 10.1996 4.03906 9.99823C4.03906 9.79698 4.10726 9.62899 4.24365 9.49427C4.38003 9.35955 4.54844 9.29219 4.74885 9.29219H9.28719V4.75385C9.28719 4.55385 9.3558 4.38476 9.49302 4.24656C9.6301 4.10823 9.79934 4.03906 10.0007 4.03906C10.202 4.03906 10.37 4.10823 10.5047 4.24656C10.6394 4.38476 10.7068 4.55385 10.7068 4.75385V9.29219H15.2451C15.4451 9.29219 15.6142 9.3608 15.7524 9.49802C15.8907 9.6351 15.9599 9.80434 15.9599 10.0057C15.9599 10.207 15.8907 10.375 15.7524 10.5097C15.6142 10.6444 15.4451 10.7118 15.2451 10.7118H10.7068V15.2501C10.7068 15.4505 10.6382 15.6189 10.5009 15.7553C10.3639 15.8917 10.1946 15.9599 9.99323 15.9599C9.79198 15.9599 9.62399 15.8917 9.48927 15.7553C9.35455 15.6189 9.28719 15.4505 9.28719 15.2501V10.7118Z" fill="currentColor"/>
</svg>
