<svg width="100%" height="100%" viewBox="0 0 89 89" fill="none" xmlns="http://www.w3.org/2000/svg">
<path d="M79.7013 40.7147C80.1306 36.6069 77.9841 35.1196 73.7081 35.1522L51.8888 36.073C56.8252 19.2184 51.0375 6.20733 42.618 8.26043C37.335 10.3795 39.5752 12.7468 40.7638 21.2396C38.9097 32.3646 31.5375 38.037 29.6388 39.7813H14.8055C11.8007 39.7813 12.9512 47.9397 12.9512 50.9064L12.9501 67.5939C12.9501 70.5443 12.9517 80.5731 20.3683 80.5731H68.1938C73.774 80.6872 74.1388 73.1564 70.4305 69.4481C75.993 69.4481 76.9455 62.6146 74.1388 59.2564C79.7013 58.3231 79.7506 50.1485 76.4321 46.9207C78.2482 45.6819 79.7013 43.0456 79.7013 40.7147Z" fill="white"/>
<path d="M81.1701 42.5234C81.5964 38.4156 78.5468 34.6176 74.3003 34.6501H53.0683C57.9706 17.7955 50.4286 5.58634 42.0672 7.63945C36.8205 9.75849 37.3125 13.2794 38.4929 21.7723C39.4439 28.586 32.1478 35.8561 30.2623 37.6004H12.9652C9.98114 37.6004 7.55469 40.0129 7.55469 42.9796V76.2164C7.55469 79.1668 9.98125 81.5793 12.9652 81.5793H67.9403C73.482 81.6934 76.8432 74.9449 73.4165 70.6576C77.5154 69.0927 78.9091 63.2244 76.1218 59.8662C80.4995 58.0568 81.4669 51.3898 78.1712 48.162C79.9748 46.9232 81.1717 44.853 81.1717 42.522L81.1701 42.5234ZM77.891 42.5234C77.891 44.4795 76.2678 46.0769 74.3003 46.0769H64.2333C62.069 46.1258 62.069 49.3045 64.2333 49.337H73.2345C75.2183 49.337 76.8252 50.9345 76.8252 52.9069C77.1039 55.1076 75.5791 57.2592 73.2345 57.2266H63.2495C61.1017 57.2755 61.0853 60.4542 63.2495 60.4867H70.7096C72.8246 60.4867 74.4478 62.3124 74.3003 64.3826C74.3003 66.3387 72.6936 67.9361 70.7096 67.9361H61.0361C60.1343 67.9361 59.3965 68.6697 59.3965 69.5662C59.3965 70.4627 60.1343 71.1963 61.0361 71.1963H67.9386C69.9061 71.1963 71.5129 72.7937 71.5129 74.7662C71.5129 76.7386 69.9061 78.3197 67.9386 78.3197H32.5408V39.9637C34.8198 37.8609 42.9192 29.7106 41.7387 21.3324C40.4598 12.1714 40.7386 11.6986 43.3127 10.6558C48.5921 10.2972 54.4786 19.5234 49.3299 35.7918C48.9856 36.8024 49.8218 37.9434 50.8876 37.9108H74.3001C76.2675 37.9108 77.8907 39.5082 77.8907 41.4643L77.891 42.5234Z" fill="currentColor"/>
</svg>
