<svg width="24" height="24" viewBox="0 0 24 24" fill="none" xmlns="http://www.w3.org/2000/svg">
<path d="M1.75098 20.8764C1.75098 21.6333 2.3653 22.2471 3.12207 22.2475H6.94336V24.0004H3.12207C1.39719 24 -0.000976562 22.6014 -0.000976562 20.8764V17.0561H1.75098V20.8764ZM23.999 20.8764C23.999 22.6016 22.6002 24.0004 20.875 24.0004H17.0547V22.2475H20.875C21.6321 22.2475 22.2461 21.6335 22.2461 20.8764V17.0561H23.999V20.8764ZM10 14.2514V18.2514H6V14.2514H10ZM18 18.2514H14V14.2514H18V18.2514ZM14 14.2514H10V10.2514H14V14.2514ZM10 10.2514H6V6.2514H10V10.2514ZM18 10.2514H14V6.2514H18V10.2514ZM6.94336 1.7514H3.12207C2.36548 1.75182 1.75127 2.36588 1.75098 3.1225V6.94379H-0.000976562V3.1225C-0.000684219 1.39777 1.39737 -0.000130383 3.12207 -0.000549316H6.94336V1.7514ZM20.875 -0.000549316C22.6 -0.000533863 23.9987 1.39751 23.999 3.1225V6.94379H22.2461V3.1225C22.2458 2.36563 21.6319 1.75142 20.875 1.7514H17.0547V-0.000549316H20.875Z" fill="currentColor"/>
</svg>
