<svg width="24" height="24" viewBox="0 0 24 24" fill="none" xmlns="http://www.w3.org/2000/svg">
<path d="M19.8177 18.9381L15.913 15.0334C16.8835 13.8662 17.4683 12.3674 17.4683 10.7344C17.4683 7.02103 14.4474 4 10.7342 4C7.02093 4 4 7.02103 4 10.7344C4 14.4475 7.02093 17.4683 10.7342 17.4683C12.3672 17.4683 13.866 16.8836 15.0332 15.913L18.938 19.8178C19.0595 19.9393 19.2187 20 19.3779 20C19.537 20 19.6963 19.9393 19.8178 19.8178C20.0607 19.5748 20.0607 19.181 19.8177 18.9381ZM5.24414 10.7344C5.24414 7.70705 7.70695 5.24414 10.7342 5.24414C13.7613 5.24414 16.2241 7.70705 16.2241 10.7344C16.2241 13.7615 13.7613 16.2241 10.7342 16.2241C7.70695 16.2241 5.24414 13.7615 5.24414 10.7344Z" fill="currentColor"/>
</svg>
