<svg width="47" height="40" viewBox="0 0 47 40" fill="none" xmlns="http://www.w3.org/2000/svg">
<path fill-rule="evenodd" clip-rule="evenodd" d="M23.5004 0C24.222 0 24.8059 0.588619 24.8059 1.31604V7.89625C24.8059 8.62369 24.222 9.21229 23.5004 9.21229C22.7788 9.21229 22.1949 8.62367 22.1949 7.89625V1.31604C22.1949 0.5886 22.7788 0 23.5004 0ZM11.297 2.1514C11.9217 1.7864 12.7199 2.00232 13.0794 2.63206L16.3432 8.33066C16.7053 8.9604 16.4911 9.76494 15.8664 10.1274C15.2417 10.4924 14.4436 10.2765 14.0815 9.64672L10.8177 3.94813C10.4581 3.31838 10.6723 2.51384 11.297 2.1514ZM35.9028 2.1514C36.5275 2.51382 36.7418 3.31833 36.3797 3.94813L33.1159 9.64672C32.7563 10.2765 31.9582 10.4924 31.3335 10.1274C30.7088 9.76496 30.4946 8.96045 30.8567 8.33066L34.1205 2.63206C34.48 2.00232 35.2781 1.78638 35.9028 2.1514ZM0.921415 8.06076C1.35999 7.48241 2.1785 7.37187 2.75221 7.814L7.93859 11.8084C8.5123 12.2505 8.62196 13.0756 8.18337 13.6539C7.74735 14.2297 6.92629 14.3402 6.35512 13.9007L1.1662 9.90631C0.592483 9.46419 0.482826 8.63909 0.921415 8.06076ZM46.2778 8.06076C46.7138 8.6391 46.6042 9.46418 46.033 9.90631L40.8441 13.9007C40.2704 14.3402 39.4519 14.2297 39.0133 13.6539C38.5773 13.0756 38.6869 12.2505 39.2606 11.8084L44.447 7.814C45.0207 7.37189 45.8392 7.48241 46.2778 8.06076ZM10.0574 18.0054C7.44895 19.4628 5.00365 21.3752 2.81311 23.7399L0.120478 26.6471C-0.0401594 26.8193 -0.0401594 27.138 0.120478 27.3102L2.81311 30.2174C4.90142 32.4742 7.22688 34.3172 9.70039 35.7488C8.10674 33.2607 7.18112 30.3125 7.18112 27.1432C7.18112 23.7477 8.24454 20.5991 10.0574 18.0054ZM17.008 15.2602C16.9825 15.2782 16.9545 15.2936 16.9264 15.3091C12.6631 17.6044 9.79177 22.0538 9.79177 27.1429C9.79177 31.821 12.2141 35.9545 15.9139 38.378C15.9369 38.3908 15.9573 38.4062 15.9802 38.4217C20.9015 39.8328 26.098 39.8328 31.0192 38.4217C31.0421 38.4062 31.0625 38.3908 31.0855 38.378C34.7853 35.9541 37.2076 31.8209 37.2076 27.1429C37.2076 22.0535 34.3365 17.6042 30.073 15.3091C30.0449 15.2936 30.0169 15.2782 29.9914 15.2602C25.7229 14.2141 21.2757 14.2141 17.0073 15.2602H17.008ZM36.9427 18.0054C38.7556 20.5989 39.8189 23.7477 39.8189 27.1434C39.8189 30.3127 38.8933 33.2609 37.2996 35.749C39.773 34.3172 42.0984 32.4742 44.1869 30.2175L46.8795 27.3104C47.0402 27.1381 47.0402 26.8194 46.8795 26.6472L44.1869 23.7401C41.9965 21.3753 39.5514 19.4628 36.9427 18.0054ZM23.4997 22.3725C20.9754 22.3725 18.9304 24.434 18.9304 26.9787C18.9304 29.5234 20.9754 31.5848 23.4997 31.5848C26.0241 31.5848 28.0691 29.5234 28.0691 26.9787C28.0691 24.434 26.0241 22.3725 23.4997 22.3725ZM16.3194 26.9787C16.3194 22.9817 19.5347 19.7404 23.4997 19.7404C27.4647 19.7404 30.6801 22.9817 30.6801 26.9787C30.6801 30.9756 27.4647 34.2169 23.4997 34.2169C19.5347 34.2169 16.3194 30.9756 16.3194 26.9787Z" fill="currentColor"/>
</svg>
