<svg width="100%" height="100%" viewBox="0 0 24 24" fill="none" xmlns="http://www.w3.org/2000/svg">
<path d="M11.5557 5.25128C12.9256 5.25128 14.0284 6.20177 14.3369 7.44952C15.5982 7.08683 16.9912 7.54313 17.6768 8.70148C18.3623 9.85986 18.071 11.2656 17.1182 12.1507C18.0711 13.0357 18.3623 14.4433 17.6768 15.6028C16.9912 16.7613 15.5983 17.2165 14.3369 16.8538C14.0707 17.9319 13.2105 18.7891 12.0977 19.0023C11.8326 19.0529 11.2818 19.0556 11.0127 19.0042C9.90009 18.791 9.04077 17.9336 8.77441 16.8558C7.51302 17.2184 6.11815 16.7624 5.43262 15.6028C4.74744 14.4445 5.0406 13.0376 5.99219 12.1526C5.04049 11.2677 4.74715 9.86088 5.43262 8.70245C6.11818 7.54401 7.51305 7.08673 8.77441 7.4505C9.08289 6.2028 10.1839 5.25138 11.5537 5.25128H11.5557ZM11.5547 6.30988C10.531 6.31105 9.72559 7.09912 9.72559 8.09796V8.13702C9.72544 8.32431 9.62344 8.49825 9.45801 8.59308C9.29246 8.68783 9.08665 8.69025 8.91992 8.59894L8.88184 8.57843C8.87961 8.57631 8.87709 8.57474 8.87598 8.57257C7.98952 8.0741 6.88492 8.36331 6.37305 9.22784C5.86123 10.0939 6.15741 11.1702 7.04395 11.6702C7.04511 11.6723 7.04667 11.674 7.04883 11.6761L7.08398 11.6966C7.24952 11.7915 7.35073 11.9671 7.34961 12.1556C7.34847 12.3429 7.24585 12.5169 7.07812 12.6107L7.04395 12.6312C6.15747 13.1311 5.86144 14.2066 6.37305 15.0726C6.8849 15.9375 7.98938 16.2266 8.87598 15.7278C8.8771 15.7258 8.8797 15.7241 8.88184 15.723L8.91992 15.7015C9.08667 15.6101 9.29242 15.6125 9.45801 15.7073C9.62345 15.8023 9.72556 15.9761 9.72559 16.1634V16.2034C9.72559 17.2034 10.5299 17.9836 11.5547 17.9837C12.5783 17.9835 13.3896 17.2033 13.3896 16.2034V16.1634C13.3897 15.9761 13.4909 15.8023 13.6562 15.7073C13.8218 15.6125 14.0265 15.6102 14.1943 15.7015L14.2314 15.723C14.2336 15.7241 14.2361 15.7258 14.2383 15.7278C15.1261 16.2267 16.2284 15.9375 16.7402 15.0726C17.2519 14.2065 16.9559 13.13 16.0693 12.6312L16.0352 12.6116C15.8675 12.5178 15.7629 12.3441 15.7617 12.1546C15.7606 11.9649 15.8633 11.7895 16.0312 11.6946L16.0674 11.6732C16.9539 11.1732 17.25 10.0978 16.7383 9.23175C16.2264 8.36579 15.1241 8.07668 14.2363 8.57648C14.2341 8.57869 14.2327 8.5811 14.2305 8.58331L14.1924 8.60187C14.0245 8.69332 13.8199 8.69197 13.6543 8.59601C13.4888 8.50108 13.3867 8.32844 13.3867 8.13995V8.09991C13.3867 7.10114 12.5794 6.312 11.5547 6.31183V6.30988H11.5566L11.5547 6.30695V6.30988ZM11.5547 10.6526C12.3897 10.6528 13.0543 11.3177 13.0547 12.1526C13.0547 12.988 12.39 13.6525 11.5547 13.6526C10.7193 13.6526 10.0547 12.9881 10.0547 12.1526C10.0551 11.3176 10.7195 10.6526 11.5547 10.6526Z" fill="currentColor"/>
</svg>
