<svg width="24" height="24" viewBox="0 0 24 24" fill="none" xmlns="http://www.w3.org/2000/svg">
<path d="M12.2422 4.86261C12.4983 4.91519 12.6904 5.14263 12.6904 5.41241V8.39581C12.6904 8.43824 12.6838 8.47914 12.6748 8.51886C12.947 8.55996 13.209 8.63268 13.458 8.73077C13.4707 8.69232 13.4884 8.65376 13.5117 8.61554L13.5088 8.61456L15.001 6.03448L15.002 6.03546C15.1411 5.78247 15.4177 5.70935 15.6465 5.77472L15.7441 5.81183L15.7578 5.81866L15.7705 5.82648C16.0399 5.98842 16.1273 6.3312 15.9648 6.60187L15.9639 6.60089L14.4844 9.17511L14.4775 9.18683L14.4707 9.19757C14.451 9.22712 14.4267 9.25366 14.4014 9.2796C14.6134 9.44985 14.8061 9.64299 14.9756 9.85577C15.0075 9.82629 15.0432 9.79919 15.084 9.77667L15.082 9.77472L17.6621 8.28253L17.668 8.2796C17.9317 8.13307 18.2547 8.22663 18.4131 8.46417L18.4229 8.4798C18.5989 8.77332 18.4653 9.09767 18.2451 9.24445L18.2344 9.25128L18.2227 9.25812L15.6426 10.7425L15.6416 10.7405C15.6016 10.7643 15.5594 10.7814 15.5176 10.7943C15.6166 11.0458 15.6893 11.3104 15.7305 11.5853C15.7732 11.5748 15.8174 11.5677 15.8633 11.5677H18.8389C19.1495 11.5678 19.4004 11.821 19.4004 12.1292C19.4004 12.4399 19.147 12.6906 18.8389 12.6907H15.8633C15.8173 12.6907 15.7732 12.6826 15.7305 12.6722C15.6897 12.9444 15.6181 13.2063 15.5205 13.4554C15.5635 13.4685 15.6071 13.4857 15.6494 13.511L15.6484 13.512L18.2168 14.9964H18.2178C18.4786 15.1413 18.5933 15.4858 18.4229 15.7698L18.418 15.7786L18.4131 15.7864C18.3264 15.9163 18.1652 16.0452 17.9434 16.0452C17.839 16.0451 17.7457 16.016 17.6631 15.9661V15.9671L15.083 14.4837L15.0762 14.4798C15.0379 14.4568 15.0041 14.4298 14.9736 14.4007C14.8044 14.6122 14.6129 14.8048 14.4014 14.9739C14.405 14.9778 14.4095 14.9807 14.4131 14.9847L14.4805 15.0765L14.4844 15.0833L15.9678 17.6634H15.9658C16.131 17.9356 16.0237 18.2572 15.7852 18.4114L15.7871 18.4134C15.7827 18.4163 15.7769 18.4175 15.7725 18.4202C15.7716 18.4208 15.7714 18.4226 15.7705 18.4232L15.7695 18.4222C15.6766 18.4793 15.5734 18.5051 15.4844 18.5052C15.3013 18.5051 15.1037 18.4091 15.001 18.223V18.2239L13.5088 15.6439L13.5098 15.6429C13.4861 15.6024 13.4696 15.5609 13.457 15.5198C13.2074 15.6177 12.9448 15.689 12.6719 15.7298C12.6824 15.7726 12.6904 15.8167 12.6904 15.8626V18.8382C12.6904 19.149 12.4372 19.3997 12.1289 19.3997C11.8182 19.3996 11.5674 19.1464 11.5674 18.8382V15.8626C11.5674 15.8167 11.5745 15.7725 11.585 15.7298C11.3101 15.6886 11.0455 15.6159 10.7939 15.5169C10.7811 15.5594 10.7647 15.6016 10.7412 15.6419L10.7422 15.6429L9.25781 18.223L9.25098 18.2347L9.24414 18.2454C9.14458 18.3948 8.9682 18.5051 8.7666 18.5052C8.64924 18.5052 8.5575 18.4641 8.50684 18.4388L8.48438 18.4271L8.46387 18.4134C8.22634 18.255 8.13281 17.932 8.2793 17.6683L8.28223 17.6624L9.77441 15.0823L9.77539 15.0833C9.79802 15.0423 9.82578 15.0069 9.85547 14.9749C9.6431 14.8057 9.45025 14.6133 9.28027 14.4017C9.25511 14.4263 9.22784 14.4496 9.19727 14.47L9.18652 14.4769L9.1748 14.4837L6.59473 15.9671L6.58496 15.973L6.57422 15.9788C6.52417 16.0038 6.43227 16.0452 6.31445 16.0452C6.1135 16.0451 5.93513 15.9364 5.83496 15.7835L5.82227 15.764L5.81152 15.7435C5.69109 15.5024 5.74519 15.1609 6.03516 15.0013L6.03418 15.0003L8.61426 13.5081L8.61523 13.511C8.65374 13.4876 8.69271 13.4701 8.73145 13.4573C8.63349 13.2086 8.56063 12.947 8.51953 12.6751C8.47947 12.6842 8.43821 12.6907 8.39551 12.6907H5.41211C5.14008 12.6907 4.91436 12.4966 4.8623 12.2415L4.85059 12.1292L4.8623 12.0159C4.91487 11.7598 5.14231 11.5677 5.41211 11.5677H8.39551C8.43821 11.5677 8.47959 11.5733 8.51953 11.5823C8.56095 11.3085 8.6344 11.0448 8.7334 10.7943C8.69186 10.781 8.65243 10.763 8.61523 10.7405V10.7425L6.03516 9.25812L6.02832 9.25421C5.76005 9.09302 5.68275 8.7655 5.81152 8.50714L5.82324 8.48468L5.83691 8.46417C6.00267 8.21554 6.32178 8.14564 6.57422 8.27179L6.58496 8.27667L6.5957 8.28253L9.17578 9.77472H9.1748C9.21412 9.79707 9.24855 9.82379 9.2793 9.85284C9.44879 9.64111 9.64182 9.44914 9.85352 9.2796C9.82459 9.24851 9.798 9.21416 9.77637 9.17511L9.77539 9.17609L8.2832 6.59601L8.27734 6.58527L8.27246 6.57452C8.14623 6.32207 8.21616 6.003 8.46484 5.83722L8.48535 5.82355L8.50781 5.81183C8.73396 5.69902 9.01331 5.74392 9.1875 5.93683L9.25488 6.02863L9.25879 6.03546L10.7432 8.61554L10.7402 8.61652C10.7633 8.65463 10.7792 8.69427 10.792 8.7337C11.0431 8.63425 11.3075 8.56143 11.582 8.51984C11.5729 8.47984 11.5674 8.43843 11.5674 8.39581V5.41241C11.5674 5.1017 11.8207 4.851 12.1289 4.85089L12.2422 4.86261ZM12.1299 9.60187C10.7381 9.60187 9.60171 10.7369 9.60156 12.1292C9.60165 13.521 10.7375 14.6566 12.1299 14.6566C13.5215 14.6563 14.6571 13.5214 14.6572 12.1292C14.6571 10.7376 13.5219 9.60216 12.1299 9.60187Z" fill="currentColor"/>
</svg>
