<svg width="40" height="40" viewBox="0 0 40 40" fill="none" xmlns="http://www.w3.org/2000/svg">
<path d="M19.9949 36.912C17.6174 36.912 15.593 36.0764 13.9216 34.4053C12.2499 32.7342 11.4141 30.7074 11.4141 28.3249C11.4141 26.8979 11.7318 25.5495 12.3674 24.2795C13.003 23.0098 13.9491 22.0593 15.2057 21.4282V7.87114C15.2057 6.53753 15.6702 5.40406 16.5991 4.47073C17.528 3.53712 18.6593 3.07031 19.9932 3.07031C21.3268 3.07031 22.461 3.53712 23.3957 4.47073C24.3302 5.40406 24.7974 6.53753 24.7974 7.87114V21.4282C26.0474 22.061 26.9918 23.0123 27.6307 24.282C28.2696 25.5517 28.5891 26.9009 28.5891 28.3295C28.5891 30.7089 27.7511 32.7342 26.0753 34.4053C24.3995 36.0764 22.3727 36.912 19.9949 36.912ZM18.0445 18.5578H21.9486V16.3695H19.9966V14.6645H21.9486V11.1195H19.9966V9.43531H21.9486V7.87114C21.9486 7.3192 21.7607 6.85587 21.3849 6.48114C21.0093 6.10642 20.5449 5.91906 19.9916 5.91906C19.4382 5.91906 18.9753 6.10642 18.6028 6.48114C18.2306 6.85587 18.0445 7.3192 18.0445 7.87114V18.5578Z" fill="currentColor"/>
</svg>
