<svg width="100%" height="100%" viewBox="0 0 32 32" fill="none" xmlns="http://www.w3.org/2000/svg">
<path d="M17.3262 7.74707C18.5383 7.74717 19.6826 8.28645 20.457 9.22949L22.6465 11.9238L25.71 13.1025C26.4844 13.4057 26.8885 14.2482 26.5518 15.0566C26.2487 15.8311 25.3739 16.2354 24.5996 15.9326L21.165 14.6191C20.8957 14.5181 20.6928 14.3496 20.5244 14.1475L19.1777 12.4629V18.29L22.1748 23.4102C22.2758 23.5786 22.3433 23.7471 22.377 23.9492L23.5889 29.8779C23.7908 30.821 23.1508 31.7305 22.208 31.9326C22.1072 31.9661 21.9729 31.9658 21.8721 31.9658C21.064 31.9658 20.3228 31.3937 20.1543 30.5518L19.043 24.8926L16.1475 19.9746L15.4736 24.2861C15.44 24.5219 15.3725 24.7242 15.2715 24.8926L11.8037 31.0898C11.467 31.6624 10.8609 31.9999 10.2549 32C9.98554 32 9.68244 31.932 9.41309 31.7637C8.57126 31.2921 8.26784 30.2142 8.73926 29.3721L12.0391 23.4443L12.7803 18.627V12.1934L11.7695 13.2715L10.9951 16.9092C10.8268 17.6165 10.2208 18.1221 9.51367 18.1221C9.41272 18.1221 9.31189 18.1215 9.21094 18.0879C8.36912 17.9195 7.86386 17.1112 8.03223 16.3027L8.87402 12.2275C8.94137 11.9581 9.0421 11.7216 9.24414 11.5195L11.5342 9.02734C12.3086 8.21898 13.386 7.74714 14.4971 7.74707H17.3262ZM15.9736 0C17.8519 7.84998e-05 19.374 1.52346 19.374 3.40234C19.3738 5.281 17.8517 6.80363 15.9736 6.80371C14.0955 6.80371 12.5725 5.28105 12.5723 3.40234C12.5723 1.52341 14.0953 0 15.9736 0Z" fill="currentColor"/>
</svg>
