<svg width="24" height="24" viewBox="0 0 24 24" fill="none" xmlns="http://www.w3.org/2000/svg">
<path d="M11.9785 5.21906C12.1503 5.21906 12.3007 5.28334 12.4287 5.41144C12.5565 5.53941 12.6201 5.68919 12.6201 5.86066V8.3089L14.4033 6.5257C14.5198 6.41231 14.667 6.35577 14.8438 6.35577C15.0205 6.35578 15.1724 6.41407 15.2988 6.53058C15.4121 6.65704 15.4688 6.80904 15.4688 6.98566C15.4686 7.16201 15.4121 7.3086 15.2988 7.42511L12.6201 10.1028V11.598H14.1201L16.7988 8.92023C16.9283 8.8038 17.0812 8.7455 17.2578 8.74542C17.4345 8.74542 17.5816 8.80372 17.6982 8.92023C17.8246 9.0467 17.8877 9.19904 17.8877 9.37726C17.8877 9.55542 17.8295 9.70126 17.7129 9.81476L15.915 11.598H18.3584C18.5299 11.5981 18.6796 11.6625 18.8076 11.7903C18.9357 11.9184 19 12.0687 19 12.2405C18.9999 12.4219 18.9355 12.5732 18.8076 12.6946C18.6796 12.8161 18.5299 12.8771 18.3584 12.8773H15.9053L17.6885 14.6751C17.8051 14.7917 17.8633 14.9388 17.8633 15.1155C17.8633 15.292 17.8049 15.4384 17.6885 15.555C17.5621 15.6815 17.4097 15.7454 17.2314 15.7454C17.0532 15.7454 16.9075 15.6815 16.7939 15.555L14.1152 12.8773H12.6201V14.3724L15.2988 17.0696C15.4123 17.1863 15.4688 17.3333 15.4688 17.5101C15.4687 17.6867 15.4123 17.8321 15.2988 17.9456C15.1724 18.0753 15.0205 18.1399 14.8438 18.14C14.6671 18.14 14.519 18.075 14.3994 17.9456L12.6201 16.1614V18.6341C12.6201 18.8059 12.5567 18.953 12.4287 19.0745C12.3007 19.196 12.1503 19.2562 11.9785 19.2562C11.7939 19.2561 11.6415 19.1959 11.5215 19.0745C11.4015 18.9529 11.3418 18.7994 11.3418 18.6146V16.1614L9.53906 17.9651C9.42555 18.0786 9.28067 18.1347 9.10547 18.1331C8.93035 18.1315 8.78267 18.069 8.66309 17.9456C8.52725 17.8384 8.46042 17.6946 8.46191 17.515C8.46348 17.3351 8.53032 17.1798 8.66309 17.0501L11.3418 14.3724V12.8773H9.84668L7.14844 15.5745C7.03198 15.6911 6.88567 15.7489 6.70898 15.7474C6.53233 15.7458 6.38519 15.6815 6.26855 15.555C6.14227 15.4384 6.07912 15.292 6.0791 15.1155C6.0791 14.9388 6.1421 14.787 6.26855 14.6605L8.05176 12.8773H5.58887C5.41415 12.8772 5.26645 12.8162 5.14648 12.6946C5.02676 12.5732 4.96688 12.4218 4.9668 12.2405C4.9668 12.0688 5.02659 11.9184 5.14648 11.7903C5.26651 11.6624 5.41964 11.598 5.60449 11.598H8.05176L6.25391 9.81476C6.13737 9.70126 6.0791 9.55539 6.0791 9.37726C6.07913 9.19907 6.1422 9.04669 6.26855 8.92023C6.38519 8.80372 6.53233 8.74542 6.70898 8.74542C6.88564 8.74547 7.03851 8.80381 7.16797 8.92023L9.84668 11.598H11.3418V10.1028L8.64355 7.42511C8.52712 7.3086 8.46885 7.16202 8.46875 6.98566C8.46875 6.80907 8.53195 6.65703 8.6582 6.53058C8.77484 6.41407 8.92198 6.35577 9.09863 6.35577C9.27541 6.35578 9.42718 6.41407 9.55371 6.53058L11.3418 8.3089V5.86066C11.3418 5.6891 11.4016 5.53945 11.5215 5.41144C11.6415 5.28336 11.7938 5.21907 11.9785 5.21906Z" fill="currentColor"/>
</svg>
